<mxfile host="Electron" modified="2023-12-11T18:09:53.995Z" agent="Mozilla/5.0 (X11; Linux x86_64) AppleWebKit/537.36 (KHTML, like Gecko) draw.io/22.1.2 Chrome/114.0.5735.289 Electron/25.9.4 Safari/537.36" etag="VgDEbIMbOa7ZbXNQHhD_" version="22.1.2" type="device" pages="2">
  <diagram id="kvKWFqONCVkDz41ngePx" name="ERD">
    <mxGraphModel dx="1072" dy="551" grid="1" gridSize="10" guides="1" tooltips="1" connect="1" arrows="1" fold="1" page="1" pageScale="1" pageWidth="1169" pageHeight="827" math="0" shadow="0">
      <root>
        <mxCell id="0" />
        <mxCell id="1" parent="0" />
        <mxCell id="SRAI_qYIzzOoZet5pKVk-235" value="" style="group" parent="1" vertex="1" connectable="0">
          <mxGeometry x="250" y="60" width="195" height="150" as="geometry" />
        </mxCell>
        <mxCell id="SRAI_qYIzzOoZet5pKVk-85" value="TaiKhoan" style="shape=table;startSize=30;container=1;collapsible=1;childLayout=tableLayout;fixedRows=1;rowLines=0;fontStyle=1;align=center;resizeLast=1;html=1;" parent="SRAI_qYIzzOoZet5pKVk-235" vertex="1">
          <mxGeometry width="195" height="150" as="geometry" />
        </mxCell>
        <mxCell id="SRAI_qYIzzOoZet5pKVk-86" value="" style="shape=tableRow;horizontal=0;startSize=0;swimlaneHead=0;swimlaneBody=0;fillColor=none;collapsible=0;dropTarget=0;points=[[0,0.5],[1,0.5]];portConstraint=eastwest;top=0;left=0;right=0;bottom=1;" parent="SRAI_qYIzzOoZet5pKVk-85" vertex="1">
          <mxGeometry y="30" width="195" height="30" as="geometry" />
        </mxCell>
        <mxCell id="SRAI_qYIzzOoZet5pKVk-87" value="PK" style="shape=partialRectangle;connectable=0;fillColor=none;top=0;left=0;bottom=0;right=0;fontStyle=1;overflow=hidden;whiteSpace=wrap;html=1;" parent="SRAI_qYIzzOoZet5pKVk-86" vertex="1">
          <mxGeometry width="30" height="30" as="geometry">
            <mxRectangle width="30" height="30" as="alternateBounds" />
          </mxGeometry>
        </mxCell>
        <mxCell id="SRAI_qYIzzOoZet5pKVk-88" value="id" style="shape=partialRectangle;connectable=0;fillColor=none;top=0;left=0;bottom=0;right=0;align=left;spacingLeft=6;fontStyle=5;overflow=hidden;whiteSpace=wrap;html=1;" parent="SRAI_qYIzzOoZet5pKVk-86" vertex="1">
          <mxGeometry x="30" width="165" height="30" as="geometry">
            <mxRectangle width="165" height="30" as="alternateBounds" />
          </mxGeometry>
        </mxCell>
        <mxCell id="SRAI_qYIzzOoZet5pKVk-89" value="" style="shape=tableRow;horizontal=0;startSize=0;swimlaneHead=0;swimlaneBody=0;fillColor=none;collapsible=0;dropTarget=0;points=[[0,0.5],[1,0.5]];portConstraint=eastwest;top=0;left=0;right=0;bottom=0;" parent="SRAI_qYIzzOoZet5pKVk-85" vertex="1">
          <mxGeometry y="60" width="195" height="30" as="geometry" />
        </mxCell>
        <mxCell id="SRAI_qYIzzOoZet5pKVk-90" value="" style="shape=partialRectangle;connectable=0;fillColor=none;top=0;left=0;bottom=0;right=0;editable=1;overflow=hidden;whiteSpace=wrap;html=1;" parent="SRAI_qYIzzOoZet5pKVk-89" vertex="1">
          <mxGeometry width="30" height="30" as="geometry">
            <mxRectangle width="30" height="30" as="alternateBounds" />
          </mxGeometry>
        </mxCell>
        <mxCell id="SRAI_qYIzzOoZet5pKVk-91" value="ten_dn" style="shape=partialRectangle;connectable=0;fillColor=none;top=0;left=0;bottom=0;right=0;align=left;spacingLeft=6;overflow=hidden;whiteSpace=wrap;html=1;" parent="SRAI_qYIzzOoZet5pKVk-89" vertex="1">
          <mxGeometry x="30" width="165" height="30" as="geometry">
            <mxRectangle width="165" height="30" as="alternateBounds" />
          </mxGeometry>
        </mxCell>
        <mxCell id="SRAI_qYIzzOoZet5pKVk-92" value="" style="shape=tableRow;horizontal=0;startSize=0;swimlaneHead=0;swimlaneBody=0;fillColor=none;collapsible=0;dropTarget=0;points=[[0,0.5],[1,0.5]];portConstraint=eastwest;top=0;left=0;right=0;bottom=0;" parent="SRAI_qYIzzOoZet5pKVk-85" vertex="1">
          <mxGeometry y="90" width="195" height="30" as="geometry" />
        </mxCell>
        <mxCell id="SRAI_qYIzzOoZet5pKVk-93" value="" style="shape=partialRectangle;connectable=0;fillColor=none;top=0;left=0;bottom=0;right=0;editable=1;overflow=hidden;whiteSpace=wrap;html=1;" parent="SRAI_qYIzzOoZet5pKVk-92" vertex="1">
          <mxGeometry width="30" height="30" as="geometry">
            <mxRectangle width="30" height="30" as="alternateBounds" />
          </mxGeometry>
        </mxCell>
        <mxCell id="SRAI_qYIzzOoZet5pKVk-94" value="mat_khau" style="shape=partialRectangle;connectable=0;fillColor=none;top=0;left=0;bottom=0;right=0;align=left;spacingLeft=6;overflow=hidden;whiteSpace=wrap;html=1;" parent="SRAI_qYIzzOoZet5pKVk-92" vertex="1">
          <mxGeometry x="30" width="165" height="30" as="geometry">
            <mxRectangle width="165" height="30" as="alternateBounds" />
          </mxGeometry>
        </mxCell>
        <mxCell id="SRAI_qYIzzOoZet5pKVk-95" value="" style="shape=tableRow;horizontal=0;startSize=0;swimlaneHead=0;swimlaneBody=0;fillColor=none;collapsible=0;dropTarget=0;points=[[0,0.5],[1,0.5]];portConstraint=eastwest;top=0;left=0;right=0;bottom=0;" parent="SRAI_qYIzzOoZet5pKVk-85" vertex="1">
          <mxGeometry y="120" width="195" height="30" as="geometry" />
        </mxCell>
        <mxCell id="SRAI_qYIzzOoZet5pKVk-96" value="" style="shape=partialRectangle;connectable=0;fillColor=none;top=0;left=0;bottom=0;right=0;editable=1;overflow=hidden;whiteSpace=wrap;html=1;" parent="SRAI_qYIzzOoZet5pKVk-95" vertex="1">
          <mxGeometry width="30" height="30" as="geometry">
            <mxRectangle width="30" height="30" as="alternateBounds" />
          </mxGeometry>
        </mxCell>
        <mxCell id="SRAI_qYIzzOoZet5pKVk-97" value="quyen" style="shape=partialRectangle;connectable=0;fillColor=none;top=0;left=0;bottom=0;right=0;align=left;spacingLeft=6;overflow=hidden;whiteSpace=wrap;html=1;" parent="SRAI_qYIzzOoZet5pKVk-95" vertex="1">
          <mxGeometry x="30" width="165" height="30" as="geometry">
            <mxRectangle width="165" height="30" as="alternateBounds" />
          </mxGeometry>
        </mxCell>
        <mxCell id="SRAI_qYIzzOoZet5pKVk-216" value="varchar" style="shape=partialRectangle;fillColor=none;align=left;verticalAlign=middle;strokeColor=none;spacingLeft=34;rotatable=0;points=[[0,0.5],[1,0.5]];portConstraint=eastwest;dropTarget=0;" parent="SRAI_qYIzzOoZet5pKVk-235" vertex="1">
          <mxGeometry x="95" y="30" width="90" height="30" as="geometry" />
        </mxCell>
        <mxCell id="SRAI_qYIzzOoZet5pKVk-217" value="" style="shape=partialRectangle;top=0;left=0;bottom=0;fillColor=none;stokeWidth=1;dashed=1;align=left;verticalAlign=middle;spacingLeft=4;spacingRight=4;overflow=hidden;rotatable=0;points=[];portConstraint=eastwest;part=1;" parent="SRAI_qYIzzOoZet5pKVk-216" vertex="1" connectable="0">
          <mxGeometry width="30" height="30" as="geometry" />
        </mxCell>
        <mxCell id="SRAI_qYIzzOoZet5pKVk-218" value="varchar" style="shape=partialRectangle;fillColor=none;align=left;verticalAlign=middle;strokeColor=none;spacingLeft=34;rotatable=0;points=[[0,0.5],[1,0.5]];portConstraint=eastwest;dropTarget=0;" parent="SRAI_qYIzzOoZet5pKVk-235" vertex="1">
          <mxGeometry x="95" y="60" width="90" height="30" as="geometry" />
        </mxCell>
        <mxCell id="SRAI_qYIzzOoZet5pKVk-219" value="" style="shape=partialRectangle;top=0;left=0;bottom=0;fillColor=none;stokeWidth=1;dashed=1;align=left;verticalAlign=middle;spacingLeft=4;spacingRight=4;overflow=hidden;rotatable=0;points=[];portConstraint=eastwest;part=1;" parent="SRAI_qYIzzOoZet5pKVk-218" vertex="1" connectable="0">
          <mxGeometry width="30" height="30" as="geometry" />
        </mxCell>
        <mxCell id="SRAI_qYIzzOoZet5pKVk-220" value="varchar" style="shape=partialRectangle;fillColor=none;align=left;verticalAlign=middle;strokeColor=none;spacingLeft=34;rotatable=0;points=[[0,0.5],[1,0.5]];portConstraint=eastwest;dropTarget=0;" parent="SRAI_qYIzzOoZet5pKVk-235" vertex="1">
          <mxGeometry x="95" y="90" width="90" height="30" as="geometry" />
        </mxCell>
        <mxCell id="SRAI_qYIzzOoZet5pKVk-221" value="" style="shape=partialRectangle;top=0;left=0;bottom=0;fillColor=none;stokeWidth=1;dashed=1;align=left;verticalAlign=middle;spacingLeft=4;spacingRight=4;overflow=hidden;rotatable=0;points=[];portConstraint=eastwest;part=1;" parent="SRAI_qYIzzOoZet5pKVk-220" vertex="1" connectable="0">
          <mxGeometry width="30" height="30" as="geometry" />
        </mxCell>
        <mxCell id="SRAI_qYIzzOoZet5pKVk-222" value="json or list" style="shape=partialRectangle;fillColor=none;align=left;verticalAlign=middle;strokeColor=none;spacingLeft=34;rotatable=0;points=[[0,0.5],[1,0.5]];portConstraint=eastwest;dropTarget=0;" parent="SRAI_qYIzzOoZet5pKVk-235" vertex="1">
          <mxGeometry x="95" y="120" width="90" height="30" as="geometry" />
        </mxCell>
        <mxCell id="SRAI_qYIzzOoZet5pKVk-223" value="" style="shape=partialRectangle;top=0;left=0;bottom=0;fillColor=none;stokeWidth=1;dashed=1;align=left;verticalAlign=middle;spacingLeft=4;spacingRight=4;overflow=hidden;rotatable=0;points=[];portConstraint=eastwest;part=1;" parent="SRAI_qYIzzOoZet5pKVk-222" vertex="1" connectable="0">
          <mxGeometry width="30" height="30" as="geometry" />
        </mxCell>
        <mxCell id="SRAI_qYIzzOoZet5pKVk-236" value="" style="group" parent="1" vertex="1" connectable="0">
          <mxGeometry x="265" y="270" width="180" height="150" as="geometry" />
        </mxCell>
        <mxCell id="SRAI_qYIzzOoZet5pKVk-124" value="ChuongTrinhHoc" style="shape=table;startSize=30;container=1;collapsible=1;childLayout=tableLayout;fixedRows=1;rowLines=0;fontStyle=1;align=center;resizeLast=1;html=1;" parent="SRAI_qYIzzOoZet5pKVk-236" vertex="1">
          <mxGeometry width="180" height="150" as="geometry" />
        </mxCell>
        <mxCell id="SRAI_qYIzzOoZet5pKVk-125" value="" style="shape=tableRow;horizontal=0;startSize=0;swimlaneHead=0;swimlaneBody=0;fillColor=none;collapsible=0;dropTarget=0;points=[[0,0.5],[1,0.5]];portConstraint=eastwest;top=0;left=0;right=0;bottom=1;" parent="SRAI_qYIzzOoZet5pKVk-124" vertex="1">
          <mxGeometry y="30" width="180" height="30" as="geometry" />
        </mxCell>
        <mxCell id="SRAI_qYIzzOoZet5pKVk-126" value="PK" style="shape=partialRectangle;connectable=0;fillColor=none;top=0;left=0;bottom=0;right=0;fontStyle=1;overflow=hidden;whiteSpace=wrap;html=1;" parent="SRAI_qYIzzOoZet5pKVk-125" vertex="1">
          <mxGeometry width="30" height="30" as="geometry">
            <mxRectangle width="30" height="30" as="alternateBounds" />
          </mxGeometry>
        </mxCell>
        <mxCell id="SRAI_qYIzzOoZet5pKVk-127" value="id" style="shape=partialRectangle;connectable=0;fillColor=none;top=0;left=0;bottom=0;right=0;align=left;spacingLeft=6;fontStyle=5;overflow=hidden;whiteSpace=wrap;html=1;" parent="SRAI_qYIzzOoZet5pKVk-125" vertex="1">
          <mxGeometry x="30" width="150" height="30" as="geometry">
            <mxRectangle width="150" height="30" as="alternateBounds" />
          </mxGeometry>
        </mxCell>
        <mxCell id="SRAI_qYIzzOoZet5pKVk-128" value="" style="shape=tableRow;horizontal=0;startSize=0;swimlaneHead=0;swimlaneBody=0;fillColor=none;collapsible=0;dropTarget=0;points=[[0,0.5],[1,0.5]];portConstraint=eastwest;top=0;left=0;right=0;bottom=0;" parent="SRAI_qYIzzOoZet5pKVk-124" vertex="1">
          <mxGeometry y="60" width="180" height="30" as="geometry" />
        </mxCell>
        <mxCell id="SRAI_qYIzzOoZet5pKVk-129" value="" style="shape=partialRectangle;connectable=0;fillColor=none;top=0;left=0;bottom=0;right=0;editable=1;overflow=hidden;whiteSpace=wrap;html=1;" parent="SRAI_qYIzzOoZet5pKVk-128" vertex="1">
          <mxGeometry width="30" height="30" as="geometry">
            <mxRectangle width="30" height="30" as="alternateBounds" />
          </mxGeometry>
        </mxCell>
        <mxCell id="SRAI_qYIzzOoZet5pKVk-130" value="ten" style="shape=partialRectangle;connectable=0;fillColor=none;top=0;left=0;bottom=0;right=0;align=left;spacingLeft=6;overflow=hidden;whiteSpace=wrap;html=1;" parent="SRAI_qYIzzOoZet5pKVk-128" vertex="1">
          <mxGeometry x="30" width="150" height="30" as="geometry">
            <mxRectangle width="150" height="30" as="alternateBounds" />
          </mxGeometry>
        </mxCell>
        <mxCell id="SRAI_qYIzzOoZet5pKVk-131" value="" style="shape=tableRow;horizontal=0;startSize=0;swimlaneHead=0;swimlaneBody=0;fillColor=none;collapsible=0;dropTarget=0;points=[[0,0.5],[1,0.5]];portConstraint=eastwest;top=0;left=0;right=0;bottom=0;" parent="SRAI_qYIzzOoZet5pKVk-124" vertex="1">
          <mxGeometry y="90" width="180" height="30" as="geometry" />
        </mxCell>
        <mxCell id="SRAI_qYIzzOoZet5pKVk-132" value="" style="shape=partialRectangle;connectable=0;fillColor=none;top=0;left=0;bottom=0;right=0;editable=1;overflow=hidden;whiteSpace=wrap;html=1;" parent="SRAI_qYIzzOoZet5pKVk-131" vertex="1">
          <mxGeometry width="30" height="30" as="geometry">
            <mxRectangle width="30" height="30" as="alternateBounds" />
          </mxGeometry>
        </mxCell>
        <mxCell id="SRAI_qYIzzOoZet5pKVk-133" value="mo_ta" style="shape=partialRectangle;connectable=0;fillColor=none;top=0;left=0;bottom=0;right=0;align=left;spacingLeft=6;overflow=hidden;whiteSpace=wrap;html=1;" parent="SRAI_qYIzzOoZet5pKVk-131" vertex="1">
          <mxGeometry x="30" width="150" height="30" as="geometry">
            <mxRectangle width="150" height="30" as="alternateBounds" />
          </mxGeometry>
        </mxCell>
        <mxCell id="SRAI_qYIzzOoZet5pKVk-134" value="" style="shape=tableRow;horizontal=0;startSize=0;swimlaneHead=0;swimlaneBody=0;fillColor=none;collapsible=0;dropTarget=0;points=[[0,0.5],[1,0.5]];portConstraint=eastwest;top=0;left=0;right=0;bottom=0;" parent="SRAI_qYIzzOoZet5pKVk-124" vertex="1">
          <mxGeometry y="120" width="180" height="30" as="geometry" />
        </mxCell>
        <mxCell id="SRAI_qYIzzOoZet5pKVk-135" value="" style="shape=partialRectangle;connectable=0;fillColor=none;top=0;left=0;bottom=0;right=0;editable=1;overflow=hidden;whiteSpace=wrap;html=1;" parent="SRAI_qYIzzOoZet5pKVk-134" vertex="1">
          <mxGeometry width="30" height="30" as="geometry">
            <mxRectangle width="30" height="30" as="alternateBounds" />
          </mxGeometry>
        </mxCell>
        <mxCell id="SRAI_qYIzzOoZet5pKVk-136" value="ds_mon" style="shape=partialRectangle;connectable=0;fillColor=none;top=0;left=0;bottom=0;right=0;align=left;spacingLeft=6;overflow=hidden;whiteSpace=wrap;html=1;" parent="SRAI_qYIzzOoZet5pKVk-134" vertex="1">
          <mxGeometry x="30" width="150" height="30" as="geometry">
            <mxRectangle width="150" height="30" as="alternateBounds" />
          </mxGeometry>
        </mxCell>
        <mxCell id="SRAI_qYIzzOoZet5pKVk-137" value="varchar" style="shape=partialRectangle;fillColor=none;align=left;verticalAlign=middle;strokeColor=none;spacingLeft=34;rotatable=0;points=[[0,0.5],[1,0.5]];portConstraint=eastwest;dropTarget=0;" parent="SRAI_qYIzzOoZet5pKVk-236" vertex="1">
          <mxGeometry x="80" y="30" width="90" height="30" as="geometry" />
        </mxCell>
        <mxCell id="SRAI_qYIzzOoZet5pKVk-138" value="" style="shape=partialRectangle;top=0;left=0;bottom=0;fillColor=none;stokeWidth=1;dashed=1;align=left;verticalAlign=middle;spacingLeft=4;spacingRight=4;overflow=hidden;rotatable=0;points=[];portConstraint=eastwest;part=1;" parent="SRAI_qYIzzOoZet5pKVk-137" vertex="1" connectable="0">
          <mxGeometry width="30" height="30" as="geometry" />
        </mxCell>
        <mxCell id="SRAI_qYIzzOoZet5pKVk-139" value="varchar" style="shape=partialRectangle;fillColor=none;align=left;verticalAlign=middle;strokeColor=none;spacingLeft=34;rotatable=0;points=[[0,0.5],[1,0.5]];portConstraint=eastwest;dropTarget=0;" parent="SRAI_qYIzzOoZet5pKVk-236" vertex="1">
          <mxGeometry x="80" y="60" width="90" height="30" as="geometry" />
        </mxCell>
        <mxCell id="SRAI_qYIzzOoZet5pKVk-140" value="" style="shape=partialRectangle;top=0;left=0;bottom=0;fillColor=none;stokeWidth=1;dashed=1;align=left;verticalAlign=middle;spacingLeft=4;spacingRight=4;overflow=hidden;rotatable=0;points=[];portConstraint=eastwest;part=1;" parent="SRAI_qYIzzOoZet5pKVk-139" vertex="1" connectable="0">
          <mxGeometry width="30" height="30" as="geometry" />
        </mxCell>
        <mxCell id="SRAI_qYIzzOoZet5pKVk-141" value="varchar" style="shape=partialRectangle;fillColor=none;align=left;verticalAlign=middle;strokeColor=none;spacingLeft=34;rotatable=0;points=[[0,0.5],[1,0.5]];portConstraint=eastwest;dropTarget=0;" parent="SRAI_qYIzzOoZet5pKVk-236" vertex="1">
          <mxGeometry x="80" y="90" width="90" height="30" as="geometry" />
        </mxCell>
        <mxCell id="SRAI_qYIzzOoZet5pKVk-142" value="" style="shape=partialRectangle;top=0;left=0;bottom=0;fillColor=none;stokeWidth=1;dashed=1;align=left;verticalAlign=middle;spacingLeft=4;spacingRight=4;overflow=hidden;rotatable=0;points=[];portConstraint=eastwest;part=1;" parent="SRAI_qYIzzOoZet5pKVk-141" vertex="1" connectable="0">
          <mxGeometry width="30" height="30" as="geometry" />
        </mxCell>
        <mxCell id="SRAI_qYIzzOoZet5pKVk-143" value="json or list" style="shape=partialRectangle;fillColor=none;align=left;verticalAlign=middle;strokeColor=none;spacingLeft=34;rotatable=0;points=[[0,0.5],[1,0.5]];portConstraint=eastwest;dropTarget=0;" parent="SRAI_qYIzzOoZet5pKVk-236" vertex="1">
          <mxGeometry x="80" y="120" width="90" height="30" as="geometry" />
        </mxCell>
        <mxCell id="SRAI_qYIzzOoZet5pKVk-144" value="" style="shape=partialRectangle;top=0;left=0;bottom=0;fillColor=none;stokeWidth=1;dashed=1;align=left;verticalAlign=middle;spacingLeft=4;spacingRight=4;overflow=hidden;rotatable=0;points=[];portConstraint=eastwest;part=1;" parent="SRAI_qYIzzOoZet5pKVk-143" vertex="1" connectable="0">
          <mxGeometry width="30" height="30" as="geometry" />
        </mxCell>
        <mxCell id="SRAI_qYIzzOoZet5pKVk-237" value="" style="group" parent="1" vertex="1" connectable="0">
          <mxGeometry x="40" y="60" width="190" height="300" as="geometry" />
        </mxCell>
        <mxCell id="SRAI_qYIzzOoZet5pKVk-16" value="SinhVien" style="shape=table;startSize=30;container=1;collapsible=1;childLayout=tableLayout;fixedRows=1;rowLines=0;fontStyle=1;align=center;resizeLast=1;html=1;" parent="SRAI_qYIzzOoZet5pKVk-237" vertex="1">
          <mxGeometry width="190" height="300" as="geometry" />
        </mxCell>
        <mxCell id="SRAI_qYIzzOoZet5pKVk-17" value="" style="shape=tableRow;horizontal=0;startSize=0;swimlaneHead=0;swimlaneBody=0;fillColor=none;collapsible=0;dropTarget=0;points=[[0,0.5],[1,0.5]];portConstraint=eastwest;top=0;left=0;right=0;bottom=1;" parent="SRAI_qYIzzOoZet5pKVk-16" vertex="1">
          <mxGeometry y="30" width="190" height="30" as="geometry" />
        </mxCell>
        <mxCell id="SRAI_qYIzzOoZet5pKVk-18" value="PK" style="shape=partialRectangle;connectable=0;fillColor=none;top=0;left=0;bottom=0;right=0;fontStyle=1;overflow=hidden;whiteSpace=wrap;html=1;" parent="SRAI_qYIzzOoZet5pKVk-17" vertex="1">
          <mxGeometry width="30" height="30" as="geometry">
            <mxRectangle width="30" height="30" as="alternateBounds" />
          </mxGeometry>
        </mxCell>
        <mxCell id="SRAI_qYIzzOoZet5pKVk-19" value="id" style="shape=partialRectangle;connectable=0;fillColor=none;top=0;left=0;bottom=0;right=0;align=left;spacingLeft=6;fontStyle=5;overflow=hidden;whiteSpace=wrap;html=1;" parent="SRAI_qYIzzOoZet5pKVk-17" vertex="1">
          <mxGeometry x="30" width="160" height="30" as="geometry">
            <mxRectangle width="160" height="30" as="alternateBounds" />
          </mxGeometry>
        </mxCell>
        <mxCell id="SRAI_qYIzzOoZet5pKVk-20" value="" style="shape=tableRow;horizontal=0;startSize=0;swimlaneHead=0;swimlaneBody=0;fillColor=none;collapsible=0;dropTarget=0;points=[[0,0.5],[1,0.5]];portConstraint=eastwest;top=0;left=0;right=0;bottom=0;" parent="SRAI_qYIzzOoZet5pKVk-16" vertex="1">
          <mxGeometry y="60" width="190" height="30" as="geometry" />
        </mxCell>
        <mxCell id="SRAI_qYIzzOoZet5pKVk-21" value="" style="shape=partialRectangle;connectable=0;fillColor=none;top=0;left=0;bottom=0;right=0;editable=1;overflow=hidden;whiteSpace=wrap;html=1;" parent="SRAI_qYIzzOoZet5pKVk-20" vertex="1">
          <mxGeometry width="30" height="30" as="geometry">
            <mxRectangle width="30" height="30" as="alternateBounds" />
          </mxGeometry>
        </mxCell>
        <mxCell id="SRAI_qYIzzOoZet5pKVk-22" value="ten" style="shape=partialRectangle;connectable=0;fillColor=none;top=0;left=0;bottom=0;right=0;align=left;spacingLeft=6;overflow=hidden;whiteSpace=wrap;html=1;" parent="SRAI_qYIzzOoZet5pKVk-20" vertex="1">
          <mxGeometry x="30" width="160" height="30" as="geometry">
            <mxRectangle width="160" height="30" as="alternateBounds" />
          </mxGeometry>
        </mxCell>
        <mxCell id="SRAI_qYIzzOoZet5pKVk-23" value="" style="shape=tableRow;horizontal=0;startSize=0;swimlaneHead=0;swimlaneBody=0;fillColor=none;collapsible=0;dropTarget=0;points=[[0,0.5],[1,0.5]];portConstraint=eastwest;top=0;left=0;right=0;bottom=0;" parent="SRAI_qYIzzOoZet5pKVk-16" vertex="1">
          <mxGeometry y="90" width="190" height="30" as="geometry" />
        </mxCell>
        <mxCell id="SRAI_qYIzzOoZet5pKVk-24" value="" style="shape=partialRectangle;connectable=0;fillColor=none;top=0;left=0;bottom=0;right=0;editable=1;overflow=hidden;whiteSpace=wrap;html=1;" parent="SRAI_qYIzzOoZet5pKVk-23" vertex="1">
          <mxGeometry width="30" height="30" as="geometry">
            <mxRectangle width="30" height="30" as="alternateBounds" />
          </mxGeometry>
        </mxCell>
        <mxCell id="SRAI_qYIzzOoZet5pKVk-25" value="gioi_tinh" style="shape=partialRectangle;connectable=0;fillColor=none;top=0;left=0;bottom=0;right=0;align=left;spacingLeft=6;overflow=hidden;whiteSpace=wrap;html=1;" parent="SRAI_qYIzzOoZet5pKVk-23" vertex="1">
          <mxGeometry x="30" width="160" height="30" as="geometry">
            <mxRectangle width="160" height="30" as="alternateBounds" />
          </mxGeometry>
        </mxCell>
        <mxCell id="SRAI_qYIzzOoZet5pKVk-26" value="" style="shape=tableRow;horizontal=0;startSize=0;swimlaneHead=0;swimlaneBody=0;fillColor=none;collapsible=0;dropTarget=0;points=[[0,0.5],[1,0.5]];portConstraint=eastwest;top=0;left=0;right=0;bottom=0;" parent="SRAI_qYIzzOoZet5pKVk-16" vertex="1">
          <mxGeometry y="120" width="190" height="30" as="geometry" />
        </mxCell>
        <mxCell id="SRAI_qYIzzOoZet5pKVk-27" value="" style="shape=partialRectangle;connectable=0;fillColor=none;top=0;left=0;bottom=0;right=0;editable=1;overflow=hidden;whiteSpace=wrap;html=1;" parent="SRAI_qYIzzOoZet5pKVk-26" vertex="1">
          <mxGeometry width="30" height="30" as="geometry">
            <mxRectangle width="30" height="30" as="alternateBounds" />
          </mxGeometry>
        </mxCell>
        <mxCell id="SRAI_qYIzzOoZet5pKVk-28" value="ngay_sinh" style="shape=partialRectangle;connectable=0;fillColor=none;top=0;left=0;bottom=0;right=0;align=left;spacingLeft=6;overflow=hidden;whiteSpace=wrap;html=1;" parent="SRAI_qYIzzOoZet5pKVk-26" vertex="1">
          <mxGeometry x="30" width="160" height="30" as="geometry">
            <mxRectangle width="160" height="30" as="alternateBounds" />
          </mxGeometry>
        </mxCell>
        <mxCell id="SRAI_qYIzzOoZet5pKVk-150" value="" style="shape=tableRow;horizontal=0;startSize=0;swimlaneHead=0;swimlaneBody=0;fillColor=none;collapsible=0;dropTarget=0;points=[[0,0.5],[1,0.5]];portConstraint=eastwest;top=0;left=0;right=0;bottom=0;" parent="SRAI_qYIzzOoZet5pKVk-16" vertex="1">
          <mxGeometry y="150" width="190" height="30" as="geometry" />
        </mxCell>
        <mxCell id="SRAI_qYIzzOoZet5pKVk-151" value="" style="shape=partialRectangle;connectable=0;fillColor=none;top=0;left=0;bottom=0;right=0;editable=1;overflow=hidden;whiteSpace=wrap;html=1;" parent="SRAI_qYIzzOoZet5pKVk-150" vertex="1">
          <mxGeometry width="30" height="30" as="geometry">
            <mxRectangle width="30" height="30" as="alternateBounds" />
          </mxGeometry>
        </mxCell>
        <mxCell id="SRAI_qYIzzOoZet5pKVk-152" value="nien_khoa" style="shape=partialRectangle;connectable=0;fillColor=none;top=0;left=0;bottom=0;right=0;align=left;spacingLeft=6;overflow=hidden;whiteSpace=wrap;html=1;" parent="SRAI_qYIzzOoZet5pKVk-150" vertex="1">
          <mxGeometry x="30" width="160" height="30" as="geometry">
            <mxRectangle width="160" height="30" as="alternateBounds" />
          </mxGeometry>
        </mxCell>
        <mxCell id="SRAI_qYIzzOoZet5pKVk-153" value="" style="shape=tableRow;horizontal=0;startSize=0;swimlaneHead=0;swimlaneBody=0;fillColor=none;collapsible=0;dropTarget=0;points=[[0,0.5],[1,0.5]];portConstraint=eastwest;top=0;left=0;right=0;bottom=0;" parent="SRAI_qYIzzOoZet5pKVk-16" vertex="1">
          <mxGeometry y="180" width="190" height="30" as="geometry" />
        </mxCell>
        <mxCell id="SRAI_qYIzzOoZet5pKVk-154" value="" style="shape=partialRectangle;connectable=0;fillColor=none;top=0;left=0;bottom=0;right=0;editable=1;overflow=hidden;whiteSpace=wrap;html=1;" parent="SRAI_qYIzzOoZet5pKVk-153" vertex="1">
          <mxGeometry width="30" height="30" as="geometry">
            <mxRectangle width="30" height="30" as="alternateBounds" />
          </mxGeometry>
        </mxCell>
        <mxCell id="SRAI_qYIzzOoZet5pKVk-155" value="diem_so" style="shape=partialRectangle;connectable=0;fillColor=none;top=0;left=0;bottom=0;right=0;align=left;spacingLeft=6;overflow=hidden;whiteSpace=wrap;html=1;" parent="SRAI_qYIzzOoZet5pKVk-153" vertex="1">
          <mxGeometry x="30" width="160" height="30" as="geometry">
            <mxRectangle width="160" height="30" as="alternateBounds" />
          </mxGeometry>
        </mxCell>
        <mxCell id="SRAI_qYIzzOoZet5pKVk-156" value="" style="shape=tableRow;horizontal=0;startSize=0;swimlaneHead=0;swimlaneBody=0;fillColor=none;collapsible=0;dropTarget=0;points=[[0,0.5],[1,0.5]];portConstraint=eastwest;top=0;left=0;right=0;bottom=0;" parent="SRAI_qYIzzOoZet5pKVk-16" vertex="1">
          <mxGeometry y="210" width="190" height="30" as="geometry" />
        </mxCell>
        <mxCell id="SRAI_qYIzzOoZet5pKVk-157" value="" style="shape=partialRectangle;connectable=0;fillColor=none;top=0;left=0;bottom=0;right=0;editable=1;overflow=hidden;whiteSpace=wrap;html=1;" parent="SRAI_qYIzzOoZet5pKVk-156" vertex="1">
          <mxGeometry width="30" height="30" as="geometry">
            <mxRectangle width="30" height="30" as="alternateBounds" />
          </mxGeometry>
        </mxCell>
        <mxCell id="SRAI_qYIzzOoZet5pKVk-158" value="dang_hoc" style="shape=partialRectangle;connectable=0;fillColor=none;top=0;left=0;bottom=0;right=0;align=left;spacingLeft=6;overflow=hidden;whiteSpace=wrap;html=1;" parent="SRAI_qYIzzOoZet5pKVk-156" vertex="1">
          <mxGeometry x="30" width="160" height="30" as="geometry">
            <mxRectangle width="160" height="30" as="alternateBounds" />
          </mxGeometry>
        </mxCell>
        <mxCell id="SRAI_qYIzzOoZet5pKVk-267" style="shape=tableRow;horizontal=0;startSize=0;swimlaneHead=0;swimlaneBody=0;fillColor=none;collapsible=0;dropTarget=0;points=[[0,0.5],[1,0.5]];portConstraint=eastwest;top=0;left=0;right=0;bottom=0;" parent="SRAI_qYIzzOoZet5pKVk-16" vertex="1">
          <mxGeometry y="240" width="190" height="30" as="geometry" />
        </mxCell>
        <mxCell id="SRAI_qYIzzOoZet5pKVk-268" style="shape=partialRectangle;connectable=0;fillColor=none;top=0;left=0;bottom=0;right=0;editable=1;overflow=hidden;whiteSpace=wrap;html=1;" parent="SRAI_qYIzzOoZet5pKVk-267" vertex="1">
          <mxGeometry width="30" height="30" as="geometry">
            <mxRectangle width="30" height="30" as="alternateBounds" />
          </mxGeometry>
        </mxCell>
        <mxCell id="SRAI_qYIzzOoZet5pKVk-269" value="ct_hoc" style="shape=partialRectangle;connectable=0;fillColor=none;top=0;left=0;bottom=0;right=0;align=left;spacingLeft=6;overflow=hidden;whiteSpace=wrap;html=1;" parent="SRAI_qYIzzOoZet5pKVk-267" vertex="1">
          <mxGeometry x="30" width="160" height="30" as="geometry">
            <mxRectangle width="160" height="30" as="alternateBounds" />
          </mxGeometry>
        </mxCell>
        <mxCell id="jOV7yjbubgc_aujzN_1O-8" style="shape=tableRow;horizontal=0;startSize=0;swimlaneHead=0;swimlaneBody=0;fillColor=none;collapsible=0;dropTarget=0;points=[[0,0.5],[1,0.5]];portConstraint=eastwest;top=0;left=0;right=0;bottom=0;" vertex="1" parent="SRAI_qYIzzOoZet5pKVk-16">
          <mxGeometry y="270" width="190" height="30" as="geometry" />
        </mxCell>
        <mxCell id="jOV7yjbubgc_aujzN_1O-9" style="shape=partialRectangle;connectable=0;fillColor=none;top=0;left=0;bottom=0;right=0;editable=1;overflow=hidden;whiteSpace=wrap;html=1;" vertex="1" parent="jOV7yjbubgc_aujzN_1O-8">
          <mxGeometry width="30" height="30" as="geometry">
            <mxRectangle width="30" height="30" as="alternateBounds" />
          </mxGeometry>
        </mxCell>
        <mxCell id="jOV7yjbubgc_aujzN_1O-10" value="gpa" style="shape=partialRectangle;connectable=0;fillColor=none;top=0;left=0;bottom=0;right=0;align=left;spacingLeft=6;overflow=hidden;whiteSpace=wrap;html=1;" vertex="1" parent="jOV7yjbubgc_aujzN_1O-8">
          <mxGeometry x="30" width="160" height="30" as="geometry">
            <mxRectangle width="160" height="30" as="alternateBounds" />
          </mxGeometry>
        </mxCell>
        <mxCell id="SRAI_qYIzzOoZet5pKVk-145" value="varchar" style="shape=partialRectangle;fillColor=none;align=left;verticalAlign=middle;strokeColor=none;spacingLeft=34;rotatable=0;points=[[0,0.5],[1,0.5]];portConstraint=eastwest;dropTarget=0;" parent="SRAI_qYIzzOoZet5pKVk-237" vertex="1">
          <mxGeometry x="95" y="30" width="95" height="30" as="geometry" />
        </mxCell>
        <mxCell id="SRAI_qYIzzOoZet5pKVk-146" value="" style="shape=partialRectangle;top=0;left=0;bottom=0;fillColor=none;stokeWidth=1;dashed=1;align=left;verticalAlign=middle;spacingLeft=4;spacingRight=4;overflow=hidden;rotatable=0;points=[];portConstraint=eastwest;part=1;" parent="SRAI_qYIzzOoZet5pKVk-145" vertex="1" connectable="0">
          <mxGeometry width="31.666666666666668" height="30" as="geometry" />
        </mxCell>
        <mxCell id="SRAI_qYIzzOoZet5pKVk-159" value="varchar" style="shape=partialRectangle;fillColor=none;align=left;verticalAlign=middle;strokeColor=none;spacingLeft=34;rotatable=0;points=[[0,0.5],[1,0.5]];portConstraint=eastwest;dropTarget=0;" parent="SRAI_qYIzzOoZet5pKVk-237" vertex="1">
          <mxGeometry x="95" y="60" width="95" height="30" as="geometry" />
        </mxCell>
        <mxCell id="SRAI_qYIzzOoZet5pKVk-160" value="" style="shape=partialRectangle;top=0;left=0;bottom=0;fillColor=none;stokeWidth=1;dashed=1;align=left;verticalAlign=middle;spacingLeft=4;spacingRight=4;overflow=hidden;rotatable=0;points=[];portConstraint=eastwest;part=1;" parent="SRAI_qYIzzOoZet5pKVk-159" vertex="1" connectable="0">
          <mxGeometry width="31.666666666666668" height="30" as="geometry" />
        </mxCell>
        <mxCell id="SRAI_qYIzzOoZet5pKVk-161" value="varchar" style="shape=partialRectangle;fillColor=none;align=left;verticalAlign=middle;strokeColor=none;spacingLeft=34;rotatable=0;points=[[0,0.5],[1,0.5]];portConstraint=eastwest;dropTarget=0;" parent="SRAI_qYIzzOoZet5pKVk-237" vertex="1">
          <mxGeometry x="95" y="90" width="95" height="30" as="geometry" />
        </mxCell>
        <mxCell id="SRAI_qYIzzOoZet5pKVk-162" value="" style="shape=partialRectangle;top=0;left=0;bottom=0;fillColor=none;stokeWidth=1;dashed=1;align=left;verticalAlign=middle;spacingLeft=4;spacingRight=4;overflow=hidden;rotatable=0;points=[];portConstraint=eastwest;part=1;" parent="SRAI_qYIzzOoZet5pKVk-161" vertex="1" connectable="0">
          <mxGeometry width="31.666666666666668" height="30" as="geometry" />
        </mxCell>
        <mxCell id="SRAI_qYIzzOoZet5pKVk-163" value="date" style="shape=partialRectangle;fillColor=none;align=left;verticalAlign=middle;strokeColor=none;spacingLeft=34;rotatable=0;points=[[0,0.5],[1,0.5]];portConstraint=eastwest;dropTarget=0;" parent="SRAI_qYIzzOoZet5pKVk-237" vertex="1">
          <mxGeometry x="95" y="120" width="95" height="30" as="geometry" />
        </mxCell>
        <mxCell id="SRAI_qYIzzOoZet5pKVk-164" value="" style="shape=partialRectangle;top=0;left=0;bottom=0;fillColor=none;stokeWidth=1;dashed=1;align=left;verticalAlign=middle;spacingLeft=4;spacingRight=4;overflow=hidden;rotatable=0;points=[];portConstraint=eastwest;part=1;" parent="SRAI_qYIzzOoZet5pKVk-163" vertex="1" connectable="0">
          <mxGeometry width="31.666666666666668" height="30" as="geometry" />
        </mxCell>
        <mxCell id="SRAI_qYIzzOoZet5pKVk-165" value="varchar" style="shape=partialRectangle;fillColor=none;align=left;verticalAlign=middle;strokeColor=none;spacingLeft=34;rotatable=0;points=[[0,0.5],[1,0.5]];portConstraint=eastwest;dropTarget=0;" parent="SRAI_qYIzzOoZet5pKVk-237" vertex="1">
          <mxGeometry x="95" y="150" width="95" height="30" as="geometry" />
        </mxCell>
        <mxCell id="SRAI_qYIzzOoZet5pKVk-166" value="" style="shape=partialRectangle;top=0;left=0;bottom=0;fillColor=none;stokeWidth=1;dashed=1;align=left;verticalAlign=middle;spacingLeft=4;spacingRight=4;overflow=hidden;rotatable=0;points=[];portConstraint=eastwest;part=1;" parent="SRAI_qYIzzOoZet5pKVk-165" vertex="1" connectable="0">
          <mxGeometry width="31.666666666666668" height="30" as="geometry" />
        </mxCell>
        <mxCell id="SRAI_qYIzzOoZet5pKVk-167" value="json" style="shape=partialRectangle;fillColor=none;align=left;verticalAlign=middle;strokeColor=none;spacingLeft=34;rotatable=0;points=[[0,0.5],[1,0.5]];portConstraint=eastwest;dropTarget=0;" parent="SRAI_qYIzzOoZet5pKVk-237" vertex="1">
          <mxGeometry x="95" y="180" width="95" height="30" as="geometry" />
        </mxCell>
        <mxCell id="SRAI_qYIzzOoZet5pKVk-168" value="" style="shape=partialRectangle;top=0;left=0;bottom=0;fillColor=none;stokeWidth=1;dashed=1;align=left;verticalAlign=middle;spacingLeft=4;spacingRight=4;overflow=hidden;rotatable=0;points=[];portConstraint=eastwest;part=1;" parent="SRAI_qYIzzOoZet5pKVk-167" vertex="1" connectable="0">
          <mxGeometry width="31.666666666666668" height="30" as="geometry" />
        </mxCell>
        <mxCell id="SRAI_qYIzzOoZet5pKVk-169" value="json or list" style="shape=partialRectangle;fillColor=none;align=left;verticalAlign=middle;strokeColor=none;spacingLeft=34;rotatable=0;points=[[0,0.5],[1,0.5]];portConstraint=eastwest;dropTarget=0;" parent="SRAI_qYIzzOoZet5pKVk-237" vertex="1">
          <mxGeometry x="95" y="210" width="95" height="30" as="geometry" />
        </mxCell>
        <mxCell id="SRAI_qYIzzOoZet5pKVk-170" value="" style="shape=partialRectangle;top=0;left=0;bottom=0;fillColor=none;stokeWidth=1;dashed=1;align=left;verticalAlign=middle;spacingLeft=4;spacingRight=4;overflow=hidden;rotatable=0;points=[];portConstraint=eastwest;part=1;" parent="SRAI_qYIzzOoZet5pKVk-169" vertex="1" connectable="0">
          <mxGeometry width="31.666666666666668" height="30" as="geometry" />
        </mxCell>
        <mxCell id="SRAI_qYIzzOoZet5pKVk-270" value="varchar" style="shape=partialRectangle;fillColor=none;align=left;verticalAlign=middle;strokeColor=none;spacingLeft=34;rotatable=0;points=[[0,0.5],[1,0.5]];portConstraint=eastwest;dropTarget=0;" parent="SRAI_qYIzzOoZet5pKVk-237" vertex="1">
          <mxGeometry x="95" y="240" width="95" height="30" as="geometry" />
        </mxCell>
        <mxCell id="SRAI_qYIzzOoZet5pKVk-271" value="" style="shape=partialRectangle;top=0;left=0;bottom=0;fillColor=none;stokeWidth=1;dashed=1;align=left;verticalAlign=middle;spacingLeft=4;spacingRight=4;overflow=hidden;rotatable=0;points=[];portConstraint=eastwest;part=1;" parent="SRAI_qYIzzOoZet5pKVk-270" vertex="1" connectable="0">
          <mxGeometry width="31.666666666666668" height="30" as="geometry" />
        </mxCell>
        <mxCell id="jOV7yjbubgc_aujzN_1O-11" value="float" style="shape=partialRectangle;fillColor=none;align=left;verticalAlign=middle;strokeColor=none;spacingLeft=34;rotatable=0;points=[[0,0.5],[1,0.5]];portConstraint=eastwest;dropTarget=0;" vertex="1" parent="SRAI_qYIzzOoZet5pKVk-237">
          <mxGeometry x="95" y="270" width="95" height="30" as="geometry" />
        </mxCell>
        <mxCell id="jOV7yjbubgc_aujzN_1O-12" value="" style="shape=partialRectangle;top=0;left=0;bottom=0;fillColor=none;stokeWidth=1;dashed=1;align=left;verticalAlign=middle;spacingLeft=4;spacingRight=4;overflow=hidden;rotatable=0;points=[];portConstraint=eastwest;part=1;" vertex="1" connectable="0" parent="jOV7yjbubgc_aujzN_1O-11">
          <mxGeometry width="31.666666666666668" height="30" as="geometry" />
        </mxCell>
        <mxCell id="SRAI_qYIzzOoZet5pKVk-238" value="" style="group" parent="1" vertex="1" connectable="0">
          <mxGeometry x="730" y="60" width="200" height="195" as="geometry" />
        </mxCell>
        <mxCell id="SRAI_qYIzzOoZet5pKVk-171" value="GiangVien" style="shape=table;startSize=30;container=1;collapsible=1;childLayout=tableLayout;fixedRows=1;rowLines=0;fontStyle=1;align=center;resizeLast=1;html=1;" parent="SRAI_qYIzzOoZet5pKVk-238" vertex="1">
          <mxGeometry x="-250" width="200" height="180" as="geometry" />
        </mxCell>
        <mxCell id="SRAI_qYIzzOoZet5pKVk-172" value="" style="shape=tableRow;horizontal=0;startSize=0;swimlaneHead=0;swimlaneBody=0;fillColor=none;collapsible=0;dropTarget=0;points=[[0,0.5],[1,0.5]];portConstraint=eastwest;top=0;left=0;right=0;bottom=1;" parent="SRAI_qYIzzOoZet5pKVk-171" vertex="1">
          <mxGeometry y="30" width="200" height="30" as="geometry" />
        </mxCell>
        <mxCell id="SRAI_qYIzzOoZet5pKVk-173" value="PK" style="shape=partialRectangle;connectable=0;fillColor=none;top=0;left=0;bottom=0;right=0;fontStyle=1;overflow=hidden;whiteSpace=wrap;html=1;" parent="SRAI_qYIzzOoZet5pKVk-172" vertex="1">
          <mxGeometry width="30" height="30" as="geometry">
            <mxRectangle width="30" height="30" as="alternateBounds" />
          </mxGeometry>
        </mxCell>
        <mxCell id="SRAI_qYIzzOoZet5pKVk-174" value="id" style="shape=partialRectangle;connectable=0;fillColor=none;top=0;left=0;bottom=0;right=0;align=left;spacingLeft=6;fontStyle=5;overflow=hidden;whiteSpace=wrap;html=1;" parent="SRAI_qYIzzOoZet5pKVk-172" vertex="1">
          <mxGeometry x="30" width="170" height="30" as="geometry">
            <mxRectangle width="170" height="30" as="alternateBounds" />
          </mxGeometry>
        </mxCell>
        <mxCell id="SRAI_qYIzzOoZet5pKVk-175" value="" style="shape=tableRow;horizontal=0;startSize=0;swimlaneHead=0;swimlaneBody=0;fillColor=none;collapsible=0;dropTarget=0;points=[[0,0.5],[1,0.5]];portConstraint=eastwest;top=0;left=0;right=0;bottom=0;" parent="SRAI_qYIzzOoZet5pKVk-171" vertex="1">
          <mxGeometry y="60" width="200" height="30" as="geometry" />
        </mxCell>
        <mxCell id="SRAI_qYIzzOoZet5pKVk-176" value="" style="shape=partialRectangle;connectable=0;fillColor=none;top=0;left=0;bottom=0;right=0;editable=1;overflow=hidden;whiteSpace=wrap;html=1;" parent="SRAI_qYIzzOoZet5pKVk-175" vertex="1">
          <mxGeometry width="30" height="30" as="geometry">
            <mxRectangle width="30" height="30" as="alternateBounds" />
          </mxGeometry>
        </mxCell>
        <mxCell id="SRAI_qYIzzOoZet5pKVk-177" value="ten" style="shape=partialRectangle;connectable=0;fillColor=none;top=0;left=0;bottom=0;right=0;align=left;spacingLeft=6;overflow=hidden;whiteSpace=wrap;html=1;" parent="SRAI_qYIzzOoZet5pKVk-175" vertex="1">
          <mxGeometry x="30" width="170" height="30" as="geometry">
            <mxRectangle width="170" height="30" as="alternateBounds" />
          </mxGeometry>
        </mxCell>
        <mxCell id="SRAI_qYIzzOoZet5pKVk-178" value="" style="shape=tableRow;horizontal=0;startSize=0;swimlaneHead=0;swimlaneBody=0;fillColor=none;collapsible=0;dropTarget=0;points=[[0,0.5],[1,0.5]];portConstraint=eastwest;top=0;left=0;right=0;bottom=0;" parent="SRAI_qYIzzOoZet5pKVk-171" vertex="1">
          <mxGeometry y="90" width="200" height="30" as="geometry" />
        </mxCell>
        <mxCell id="SRAI_qYIzzOoZet5pKVk-179" value="" style="shape=partialRectangle;connectable=0;fillColor=none;top=0;left=0;bottom=0;right=0;editable=1;overflow=hidden;whiteSpace=wrap;html=1;" parent="SRAI_qYIzzOoZet5pKVk-178" vertex="1">
          <mxGeometry width="30" height="30" as="geometry">
            <mxRectangle width="30" height="30" as="alternateBounds" />
          </mxGeometry>
        </mxCell>
        <mxCell id="SRAI_qYIzzOoZet5pKVk-180" value="gioi_tinh" style="shape=partialRectangle;connectable=0;fillColor=none;top=0;left=0;bottom=0;right=0;align=left;spacingLeft=6;overflow=hidden;whiteSpace=wrap;html=1;" parent="SRAI_qYIzzOoZet5pKVk-178" vertex="1">
          <mxGeometry x="30" width="170" height="30" as="geometry">
            <mxRectangle width="170" height="30" as="alternateBounds" />
          </mxGeometry>
        </mxCell>
        <mxCell id="SRAI_qYIzzOoZet5pKVk-181" value="" style="shape=tableRow;horizontal=0;startSize=0;swimlaneHead=0;swimlaneBody=0;fillColor=none;collapsible=0;dropTarget=0;points=[[0,0.5],[1,0.5]];portConstraint=eastwest;top=0;left=0;right=0;bottom=0;" parent="SRAI_qYIzzOoZet5pKVk-171" vertex="1">
          <mxGeometry y="120" width="200" height="30" as="geometry" />
        </mxCell>
        <mxCell id="SRAI_qYIzzOoZet5pKVk-182" value="" style="shape=partialRectangle;connectable=0;fillColor=none;top=0;left=0;bottom=0;right=0;editable=1;overflow=hidden;whiteSpace=wrap;html=1;" parent="SRAI_qYIzzOoZet5pKVk-181" vertex="1">
          <mxGeometry width="30" height="30" as="geometry">
            <mxRectangle width="30" height="30" as="alternateBounds" />
          </mxGeometry>
        </mxCell>
        <mxCell id="SRAI_qYIzzOoZet5pKVk-183" value="ngay_sinh" style="shape=partialRectangle;connectable=0;fillColor=none;top=0;left=0;bottom=0;right=0;align=left;spacingLeft=6;overflow=hidden;whiteSpace=wrap;html=1;" parent="SRAI_qYIzzOoZet5pKVk-181" vertex="1">
          <mxGeometry x="30" width="170" height="30" as="geometry">
            <mxRectangle width="170" height="30" as="alternateBounds" />
          </mxGeometry>
        </mxCell>
        <mxCell id="SRAI_qYIzzOoZet5pKVk-190" value="" style="shape=tableRow;horizontal=0;startSize=0;swimlaneHead=0;swimlaneBody=0;fillColor=none;collapsible=0;dropTarget=0;points=[[0,0.5],[1,0.5]];portConstraint=eastwest;top=0;left=0;right=0;bottom=0;" parent="SRAI_qYIzzOoZet5pKVk-171" vertex="1">
          <mxGeometry y="150" width="200" height="30" as="geometry" />
        </mxCell>
        <mxCell id="SRAI_qYIzzOoZet5pKVk-191" value="" style="shape=partialRectangle;connectable=0;fillColor=none;top=0;left=0;bottom=0;right=0;editable=1;overflow=hidden;whiteSpace=wrap;html=1;" parent="SRAI_qYIzzOoZet5pKVk-190" vertex="1">
          <mxGeometry width="30" height="30" as="geometry">
            <mxRectangle width="30" height="30" as="alternateBounds" />
          </mxGeometry>
        </mxCell>
        <mxCell id="SRAI_qYIzzOoZet5pKVk-192" value="giang_day" style="shape=partialRectangle;connectable=0;fillColor=none;top=0;left=0;bottom=0;right=0;align=left;spacingLeft=6;overflow=hidden;whiteSpace=wrap;html=1;" parent="SRAI_qYIzzOoZet5pKVk-190" vertex="1">
          <mxGeometry x="30" width="170" height="30" as="geometry">
            <mxRectangle width="170" height="30" as="alternateBounds" />
          </mxGeometry>
        </mxCell>
        <mxCell id="SRAI_qYIzzOoZet5pKVk-193" value="varchar" style="shape=partialRectangle;fillColor=none;align=left;verticalAlign=middle;strokeColor=none;spacingLeft=34;rotatable=0;points=[[0,0.5],[1,0.5]];portConstraint=eastwest;dropTarget=0;" parent="SRAI_qYIzzOoZet5pKVk-238" vertex="1">
          <mxGeometry x="-155" y="30" width="90" height="30" as="geometry" />
        </mxCell>
        <mxCell id="SRAI_qYIzzOoZet5pKVk-194" value="" style="shape=partialRectangle;top=0;left=0;bottom=0;fillColor=none;stokeWidth=1;dashed=1;align=left;verticalAlign=middle;spacingLeft=4;spacingRight=4;overflow=hidden;rotatable=0;points=[];portConstraint=eastwest;part=1;" parent="SRAI_qYIzzOoZet5pKVk-193" vertex="1" connectable="0">
          <mxGeometry width="30" height="30" as="geometry" />
        </mxCell>
        <mxCell id="SRAI_qYIzzOoZet5pKVk-195" value="varchar" style="shape=partialRectangle;fillColor=none;align=left;verticalAlign=middle;strokeColor=none;spacingLeft=34;rotatable=0;points=[[0,0.5],[1,0.5]];portConstraint=eastwest;dropTarget=0;" parent="SRAI_qYIzzOoZet5pKVk-238" vertex="1">
          <mxGeometry x="-155" y="60" width="90" height="30" as="geometry" />
        </mxCell>
        <mxCell id="SRAI_qYIzzOoZet5pKVk-196" value="" style="shape=partialRectangle;top=0;left=0;bottom=0;fillColor=none;stokeWidth=1;dashed=1;align=left;verticalAlign=middle;spacingLeft=4;spacingRight=4;overflow=hidden;rotatable=0;points=[];portConstraint=eastwest;part=1;" parent="SRAI_qYIzzOoZet5pKVk-195" vertex="1" connectable="0">
          <mxGeometry width="30" height="30" as="geometry" />
        </mxCell>
        <mxCell id="SRAI_qYIzzOoZet5pKVk-197" value="varchar" style="shape=partialRectangle;fillColor=none;align=left;verticalAlign=middle;strokeColor=none;spacingLeft=34;rotatable=0;points=[[0,0.5],[1,0.5]];portConstraint=eastwest;dropTarget=0;" parent="SRAI_qYIzzOoZet5pKVk-238" vertex="1">
          <mxGeometry x="-155" y="90" width="90" height="30" as="geometry" />
        </mxCell>
        <mxCell id="SRAI_qYIzzOoZet5pKVk-198" value="" style="shape=partialRectangle;top=0;left=0;bottom=0;fillColor=none;stokeWidth=1;dashed=1;align=left;verticalAlign=middle;spacingLeft=4;spacingRight=4;overflow=hidden;rotatable=0;points=[];portConstraint=eastwest;part=1;" parent="SRAI_qYIzzOoZet5pKVk-197" vertex="1" connectable="0">
          <mxGeometry width="30" height="30" as="geometry" />
        </mxCell>
        <mxCell id="SRAI_qYIzzOoZet5pKVk-199" value="date" style="shape=partialRectangle;fillColor=none;align=left;verticalAlign=middle;strokeColor=none;spacingLeft=34;rotatable=0;points=[[0,0.5],[1,0.5]];portConstraint=eastwest;dropTarget=0;" parent="SRAI_qYIzzOoZet5pKVk-238" vertex="1">
          <mxGeometry x="-155" y="120" width="90" height="30" as="geometry" />
        </mxCell>
        <mxCell id="SRAI_qYIzzOoZet5pKVk-200" value="" style="shape=partialRectangle;top=0;left=0;bottom=0;fillColor=none;stokeWidth=1;dashed=1;align=left;verticalAlign=middle;spacingLeft=4;spacingRight=4;overflow=hidden;rotatable=0;points=[];portConstraint=eastwest;part=1;" parent="SRAI_qYIzzOoZet5pKVk-199" vertex="1" connectable="0">
          <mxGeometry width="30" height="30" as="geometry" />
        </mxCell>
        <mxCell id="SRAI_qYIzzOoZet5pKVk-201" value="json or list" style="shape=partialRectangle;fillColor=none;align=left;verticalAlign=middle;strokeColor=none;spacingLeft=34;rotatable=0;points=[[0,0.5],[1,0.5]];portConstraint=eastwest;dropTarget=0;" parent="SRAI_qYIzzOoZet5pKVk-238" vertex="1">
          <mxGeometry x="-155" y="150" width="90" height="30" as="geometry" />
        </mxCell>
        <mxCell id="SRAI_qYIzzOoZet5pKVk-202" value="" style="shape=partialRectangle;top=0;left=0;bottom=0;fillColor=none;stokeWidth=1;dashed=1;align=left;verticalAlign=middle;spacingLeft=4;spacingRight=4;overflow=hidden;rotatable=0;points=[];portConstraint=eastwest;part=1;" parent="SRAI_qYIzzOoZet5pKVk-201" vertex="1" connectable="0">
          <mxGeometry width="30" height="30" as="geometry" />
        </mxCell>
        <mxCell id="SRAI_qYIzzOoZet5pKVk-277" value="key: 0&lt;br&gt;value: [id_hoc_phan]" style="whiteSpace=wrap;html=1;" parent="SRAI_qYIzzOoZet5pKVk-238" vertex="1">
          <mxGeometry x="-10" y="135" width="120" height="60" as="geometry" />
        </mxCell>
        <mxCell id="SRAI_qYIzzOoZet5pKVk-278" value="" style="edgeStyle=orthogonalEdgeStyle;rounded=0;orthogonalLoop=1;jettySize=auto;html=1;" parent="SRAI_qYIzzOoZet5pKVk-238" source="SRAI_qYIzzOoZet5pKVk-201" target="SRAI_qYIzzOoZet5pKVk-277" edge="1">
          <mxGeometry relative="1" as="geometry" />
        </mxCell>
        <mxCell id="SRAI_qYIzzOoZet5pKVk-240" value="" style="group" parent="1" vertex="1" connectable="0">
          <mxGeometry x="890" y="330" width="210" height="210" as="geometry" />
        </mxCell>
        <mxCell id="SRAI_qYIzzOoZet5pKVk-72" value="MonHoc" style="shape=table;startSize=30;container=1;collapsible=1;childLayout=tableLayout;fixedRows=1;rowLines=0;fontStyle=1;align=center;resizeLast=1;html=1;" parent="SRAI_qYIzzOoZet5pKVk-240" vertex="1">
          <mxGeometry width="210" height="210" as="geometry" />
        </mxCell>
        <mxCell id="SRAI_qYIzzOoZet5pKVk-73" value="" style="shape=tableRow;horizontal=0;startSize=0;swimlaneHead=0;swimlaneBody=0;fillColor=none;collapsible=0;dropTarget=0;points=[[0,0.5],[1,0.5]];portConstraint=eastwest;top=0;left=0;right=0;bottom=1;" parent="SRAI_qYIzzOoZet5pKVk-72" vertex="1">
          <mxGeometry y="30" width="210" height="30" as="geometry" />
        </mxCell>
        <mxCell id="SRAI_qYIzzOoZet5pKVk-74" value="PK" style="shape=partialRectangle;connectable=0;fillColor=none;top=0;left=0;bottom=0;right=0;fontStyle=1;overflow=hidden;whiteSpace=wrap;html=1;" parent="SRAI_qYIzzOoZet5pKVk-73" vertex="1">
          <mxGeometry width="30" height="30" as="geometry">
            <mxRectangle width="30" height="30" as="alternateBounds" />
          </mxGeometry>
        </mxCell>
        <mxCell id="SRAI_qYIzzOoZet5pKVk-75" value="id" style="shape=partialRectangle;connectable=0;fillColor=none;top=0;left=0;bottom=0;right=0;align=left;spacingLeft=6;fontStyle=5;overflow=hidden;whiteSpace=wrap;html=1;" parent="SRAI_qYIzzOoZet5pKVk-73" vertex="1">
          <mxGeometry x="30" width="180" height="30" as="geometry">
            <mxRectangle width="180" height="30" as="alternateBounds" />
          </mxGeometry>
        </mxCell>
        <mxCell id="SRAI_qYIzzOoZet5pKVk-76" value="" style="shape=tableRow;horizontal=0;startSize=0;swimlaneHead=0;swimlaneBody=0;fillColor=none;collapsible=0;dropTarget=0;points=[[0,0.5],[1,0.5]];portConstraint=eastwest;top=0;left=0;right=0;bottom=0;" parent="SRAI_qYIzzOoZet5pKVk-72" vertex="1">
          <mxGeometry y="60" width="210" height="30" as="geometry" />
        </mxCell>
        <mxCell id="SRAI_qYIzzOoZet5pKVk-77" value="" style="shape=partialRectangle;connectable=0;fillColor=none;top=0;left=0;bottom=0;right=0;editable=1;overflow=hidden;whiteSpace=wrap;html=1;" parent="SRAI_qYIzzOoZet5pKVk-76" vertex="1">
          <mxGeometry width="30" height="30" as="geometry">
            <mxRectangle width="30" height="30" as="alternateBounds" />
          </mxGeometry>
        </mxCell>
        <mxCell id="SRAI_qYIzzOoZet5pKVk-78" value="id_hoc_phan" style="shape=partialRectangle;connectable=0;fillColor=none;top=0;left=0;bottom=0;right=0;align=left;spacingLeft=6;overflow=hidden;whiteSpace=wrap;html=1;" parent="SRAI_qYIzzOoZet5pKVk-76" vertex="1">
          <mxGeometry x="30" width="180" height="30" as="geometry">
            <mxRectangle width="180" height="30" as="alternateBounds" />
          </mxGeometry>
        </mxCell>
        <mxCell id="SRAI_qYIzzOoZet5pKVk-79" value="" style="shape=tableRow;horizontal=0;startSize=0;swimlaneHead=0;swimlaneBody=0;fillColor=none;collapsible=0;dropTarget=0;points=[[0,0.5],[1,0.5]];portConstraint=eastwest;top=0;left=0;right=0;bottom=0;" parent="SRAI_qYIzzOoZet5pKVk-72" vertex="1">
          <mxGeometry y="90" width="210" height="30" as="geometry" />
        </mxCell>
        <mxCell id="SRAI_qYIzzOoZet5pKVk-80" value="" style="shape=partialRectangle;connectable=0;fillColor=none;top=0;left=0;bottom=0;right=0;editable=1;overflow=hidden;whiteSpace=wrap;html=1;" parent="SRAI_qYIzzOoZet5pKVk-79" vertex="1">
          <mxGeometry width="30" height="30" as="geometry">
            <mxRectangle width="30" height="30" as="alternateBounds" />
          </mxGeometry>
        </mxCell>
        <mxCell id="SRAI_qYIzzOoZet5pKVk-81" value="ky_hoc" style="shape=partialRectangle;connectable=0;fillColor=none;top=0;left=0;bottom=0;right=0;align=left;spacingLeft=6;overflow=hidden;whiteSpace=wrap;html=1;" parent="SRAI_qYIzzOoZet5pKVk-79" vertex="1">
          <mxGeometry x="30" width="180" height="30" as="geometry">
            <mxRectangle width="180" height="30" as="alternateBounds" />
          </mxGeometry>
        </mxCell>
        <mxCell id="SRAI_qYIzzOoZet5pKVk-257" style="shape=tableRow;horizontal=0;startSize=0;swimlaneHead=0;swimlaneBody=0;fillColor=none;collapsible=0;dropTarget=0;points=[[0,0.5],[1,0.5]];portConstraint=eastwest;top=0;left=0;right=0;bottom=0;" parent="SRAI_qYIzzOoZet5pKVk-72" vertex="1">
          <mxGeometry y="120" width="210" height="30" as="geometry" />
        </mxCell>
        <mxCell id="SRAI_qYIzzOoZet5pKVk-258" style="shape=partialRectangle;connectable=0;fillColor=none;top=0;left=0;bottom=0;right=0;editable=1;overflow=hidden;whiteSpace=wrap;html=1;" parent="SRAI_qYIzzOoZet5pKVk-257" vertex="1">
          <mxGeometry width="30" height="30" as="geometry">
            <mxRectangle width="30" height="30" as="alternateBounds" />
          </mxGeometry>
        </mxCell>
        <mxCell id="SRAI_qYIzzOoZet5pKVk-259" value="loai_phong" style="shape=partialRectangle;connectable=0;fillColor=none;top=0;left=0;bottom=0;right=0;align=left;spacingLeft=6;overflow=hidden;whiteSpace=wrap;html=1;" parent="SRAI_qYIzzOoZet5pKVk-257" vertex="1">
          <mxGeometry x="30" width="180" height="30" as="geometry">
            <mxRectangle width="180" height="30" as="alternateBounds" />
          </mxGeometry>
        </mxCell>
        <mxCell id="SRAI_qYIzzOoZet5pKVk-260" style="shape=tableRow;horizontal=0;startSize=0;swimlaneHead=0;swimlaneBody=0;fillColor=none;collapsible=0;dropTarget=0;points=[[0,0.5],[1,0.5]];portConstraint=eastwest;top=0;left=0;right=0;bottom=0;" parent="SRAI_qYIzzOoZet5pKVk-72" vertex="1">
          <mxGeometry y="150" width="210" height="30" as="geometry" />
        </mxCell>
        <mxCell id="SRAI_qYIzzOoZet5pKVk-261" style="shape=partialRectangle;connectable=0;fillColor=none;top=0;left=0;bottom=0;right=0;editable=1;overflow=hidden;whiteSpace=wrap;html=1;" parent="SRAI_qYIzzOoZet5pKVk-260" vertex="1">
          <mxGeometry width="30" height="30" as="geometry">
            <mxRectangle width="30" height="30" as="alternateBounds" />
          </mxGeometry>
        </mxCell>
        <mxCell id="SRAI_qYIzzOoZet5pKVk-262" value="so_sv" style="shape=partialRectangle;connectable=0;fillColor=none;top=0;left=0;bottom=0;right=0;align=left;spacingLeft=6;overflow=hidden;whiteSpace=wrap;html=1;" parent="SRAI_qYIzzOoZet5pKVk-260" vertex="1">
          <mxGeometry x="30" width="180" height="30" as="geometry">
            <mxRectangle width="180" height="30" as="alternateBounds" />
          </mxGeometry>
        </mxCell>
        <mxCell id="SRAI_qYIzzOoZet5pKVk-82" value="" style="shape=tableRow;horizontal=0;startSize=0;swimlaneHead=0;swimlaneBody=0;fillColor=none;collapsible=0;dropTarget=0;points=[[0,0.5],[1,0.5]];portConstraint=eastwest;top=0;left=0;right=0;bottom=0;" parent="SRAI_qYIzzOoZet5pKVk-72" vertex="1">
          <mxGeometry y="180" width="210" height="30" as="geometry" />
        </mxCell>
        <mxCell id="SRAI_qYIzzOoZet5pKVk-83" value="" style="shape=partialRectangle;connectable=0;fillColor=none;top=0;left=0;bottom=0;right=0;editable=1;overflow=hidden;whiteSpace=wrap;html=1;" parent="SRAI_qYIzzOoZet5pKVk-82" vertex="1">
          <mxGeometry width="30" height="30" as="geometry">
            <mxRectangle width="30" height="30" as="alternateBounds" />
          </mxGeometry>
        </mxCell>
        <mxCell id="SRAI_qYIzzOoZet5pKVk-84" value="ds_sv" style="shape=partialRectangle;connectable=0;fillColor=none;top=0;left=0;bottom=0;right=0;align=left;spacingLeft=6;overflow=hidden;whiteSpace=wrap;html=1;" parent="SRAI_qYIzzOoZet5pKVk-82" vertex="1">
          <mxGeometry x="30" width="180" height="30" as="geometry">
            <mxRectangle width="180" height="30" as="alternateBounds" />
          </mxGeometry>
        </mxCell>
        <mxCell id="SRAI_qYIzzOoZet5pKVk-224" value="varchar" style="shape=partialRectangle;fillColor=none;align=left;verticalAlign=middle;strokeColor=none;spacingLeft=34;rotatable=0;points=[[0,0.5],[1,0.5]];portConstraint=eastwest;dropTarget=0;" parent="SRAI_qYIzzOoZet5pKVk-240" vertex="1">
          <mxGeometry x="110" y="30" width="90" height="30" as="geometry" />
        </mxCell>
        <mxCell id="SRAI_qYIzzOoZet5pKVk-225" value="" style="shape=partialRectangle;top=0;left=0;bottom=0;fillColor=none;stokeWidth=1;dashed=1;align=left;verticalAlign=middle;spacingLeft=4;spacingRight=4;overflow=hidden;rotatable=0;points=[];portConstraint=eastwest;part=1;" parent="SRAI_qYIzzOoZet5pKVk-224" vertex="1" connectable="0">
          <mxGeometry width="30" height="30" as="geometry" />
        </mxCell>
        <mxCell id="SRAI_qYIzzOoZet5pKVk-226" value="varchar" style="shape=partialRectangle;fillColor=none;align=left;verticalAlign=middle;strokeColor=none;spacingLeft=34;rotatable=0;points=[[0,0.5],[1,0.5]];portConstraint=eastwest;dropTarget=0;" parent="SRAI_qYIzzOoZet5pKVk-240" vertex="1">
          <mxGeometry x="110" y="60" width="90" height="30" as="geometry" />
        </mxCell>
        <mxCell id="SRAI_qYIzzOoZet5pKVk-227" value="" style="shape=partialRectangle;top=0;left=0;bottom=0;fillColor=none;stokeWidth=1;dashed=1;align=left;verticalAlign=middle;spacingLeft=4;spacingRight=4;overflow=hidden;rotatable=0;points=[];portConstraint=eastwest;part=1;" parent="SRAI_qYIzzOoZet5pKVk-226" vertex="1" connectable="0">
          <mxGeometry width="30" height="30" as="geometry" />
        </mxCell>
        <mxCell id="SRAI_qYIzzOoZet5pKVk-228" value="varchar" style="shape=partialRectangle;fillColor=none;align=left;verticalAlign=middle;strokeColor=none;spacingLeft=34;rotatable=0;points=[[0,0.5],[1,0.5]];portConstraint=eastwest;dropTarget=0;" parent="SRAI_qYIzzOoZet5pKVk-240" vertex="1">
          <mxGeometry x="110" y="90" width="90" height="30" as="geometry" />
        </mxCell>
        <mxCell id="SRAI_qYIzzOoZet5pKVk-229" value="" style="shape=partialRectangle;top=0;left=0;bottom=0;fillColor=none;stokeWidth=1;dashed=1;align=left;verticalAlign=middle;spacingLeft=4;spacingRight=4;overflow=hidden;rotatable=0;points=[];portConstraint=eastwest;part=1;" parent="SRAI_qYIzzOoZet5pKVk-228" vertex="1" connectable="0">
          <mxGeometry width="30" height="30" as="geometry" />
        </mxCell>
        <mxCell id="SRAI_qYIzzOoZet5pKVk-263" value="varchar" style="shape=partialRectangle;fillColor=none;align=left;verticalAlign=middle;strokeColor=none;spacingLeft=34;rotatable=0;points=[[0,0.5],[1,0.5]];portConstraint=eastwest;dropTarget=0;" parent="SRAI_qYIzzOoZet5pKVk-240" vertex="1">
          <mxGeometry x="110" y="120" width="90" height="30" as="geometry" />
        </mxCell>
        <mxCell id="SRAI_qYIzzOoZet5pKVk-264" value="" style="shape=partialRectangle;top=0;left=0;bottom=0;fillColor=none;stokeWidth=1;dashed=1;align=left;verticalAlign=middle;spacingLeft=4;spacingRight=4;overflow=hidden;rotatable=0;points=[];portConstraint=eastwest;part=1;" parent="SRAI_qYIzzOoZet5pKVk-263" vertex="1" connectable="0">
          <mxGeometry width="30" height="30" as="geometry" />
        </mxCell>
        <mxCell id="SRAI_qYIzzOoZet5pKVk-265" value="int" style="shape=partialRectangle;fillColor=none;align=left;verticalAlign=middle;strokeColor=none;spacingLeft=34;rotatable=0;points=[[0,0.5],[1,0.5]];portConstraint=eastwest;dropTarget=0;" parent="SRAI_qYIzzOoZet5pKVk-240" vertex="1">
          <mxGeometry x="110" y="150" width="90" height="30" as="geometry" />
        </mxCell>
        <mxCell id="SRAI_qYIzzOoZet5pKVk-266" value="" style="shape=partialRectangle;top=0;left=0;bottom=0;fillColor=none;stokeWidth=1;dashed=1;align=left;verticalAlign=middle;spacingLeft=4;spacingRight=4;overflow=hidden;rotatable=0;points=[];portConstraint=eastwest;part=1;" parent="SRAI_qYIzzOoZet5pKVk-265" vertex="1" connectable="0">
          <mxGeometry width="30" height="30" as="geometry" />
        </mxCell>
        <mxCell id="SRAI_qYIzzOoZet5pKVk-232" value="json or list" style="shape=partialRectangle;fillColor=none;align=left;verticalAlign=middle;strokeColor=none;spacingLeft=34;rotatable=0;points=[[0,0.5],[1,0.5]];portConstraint=eastwest;dropTarget=0;" parent="SRAI_qYIzzOoZet5pKVk-240" vertex="1">
          <mxGeometry x="110" y="180" width="90" height="30" as="geometry" />
        </mxCell>
        <mxCell id="SRAI_qYIzzOoZet5pKVk-233" value="" style="shape=partialRectangle;top=0;left=0;bottom=0;fillColor=none;stokeWidth=1;dashed=1;align=left;verticalAlign=middle;spacingLeft=4;spacingRight=4;overflow=hidden;rotatable=0;points=[];portConstraint=eastwest;part=1;" parent="SRAI_qYIzzOoZet5pKVk-232" vertex="1" connectable="0">
          <mxGeometry width="30" height="30" as="geometry" />
        </mxCell>
        <mxCell id="SRAI_qYIzzOoZet5pKVk-251" value="" style="group" parent="1" vertex="1" connectable="0">
          <mxGeometry x="720" y="90" width="180" height="90" as="geometry" />
        </mxCell>
        <mxCell id="SRAI_qYIzzOoZet5pKVk-111" value="LoaiPhong" style="shape=table;startSize=30;container=1;collapsible=1;childLayout=tableLayout;fixedRows=1;rowLines=0;fontStyle=1;align=center;resizeLast=1;html=1;" parent="SRAI_qYIzzOoZet5pKVk-251" vertex="1">
          <mxGeometry width="180" height="90" as="geometry" />
        </mxCell>
        <mxCell id="SRAI_qYIzzOoZet5pKVk-112" value="" style="shape=tableRow;horizontal=0;startSize=0;swimlaneHead=0;swimlaneBody=0;fillColor=none;collapsible=0;dropTarget=0;points=[[0,0.5],[1,0.5]];portConstraint=eastwest;top=0;left=0;right=0;bottom=1;" parent="SRAI_qYIzzOoZet5pKVk-111" vertex="1">
          <mxGeometry y="30" width="180" height="30" as="geometry" />
        </mxCell>
        <mxCell id="SRAI_qYIzzOoZet5pKVk-113" value="PK" style="shape=partialRectangle;connectable=0;fillColor=none;top=0;left=0;bottom=0;right=0;fontStyle=1;overflow=hidden;whiteSpace=wrap;html=1;" parent="SRAI_qYIzzOoZet5pKVk-112" vertex="1">
          <mxGeometry width="30" height="30" as="geometry">
            <mxRectangle width="30" height="30" as="alternateBounds" />
          </mxGeometry>
        </mxCell>
        <mxCell id="SRAI_qYIzzOoZet5pKVk-114" value="id" style="shape=partialRectangle;connectable=0;fillColor=none;top=0;left=0;bottom=0;right=0;align=left;spacingLeft=6;fontStyle=5;overflow=hidden;whiteSpace=wrap;html=1;" parent="SRAI_qYIzzOoZet5pKVk-112" vertex="1">
          <mxGeometry x="30" width="150" height="30" as="geometry">
            <mxRectangle width="150" height="30" as="alternateBounds" />
          </mxGeometry>
        </mxCell>
        <mxCell id="SRAI_qYIzzOoZet5pKVk-115" value="" style="shape=tableRow;horizontal=0;startSize=0;swimlaneHead=0;swimlaneBody=0;fillColor=none;collapsible=0;dropTarget=0;points=[[0,0.5],[1,0.5]];portConstraint=eastwest;top=0;left=0;right=0;bottom=0;" parent="SRAI_qYIzzOoZet5pKVk-111" vertex="1">
          <mxGeometry y="60" width="180" height="30" as="geometry" />
        </mxCell>
        <mxCell id="SRAI_qYIzzOoZet5pKVk-116" value="" style="shape=partialRectangle;connectable=0;fillColor=none;top=0;left=0;bottom=0;right=0;editable=1;overflow=hidden;whiteSpace=wrap;html=1;" parent="SRAI_qYIzzOoZet5pKVk-115" vertex="1">
          <mxGeometry width="30" height="30" as="geometry">
            <mxRectangle width="30" height="30" as="alternateBounds" />
          </mxGeometry>
        </mxCell>
        <mxCell id="SRAI_qYIzzOoZet5pKVk-117" value="mo_ta" style="shape=partialRectangle;connectable=0;fillColor=none;top=0;left=0;bottom=0;right=0;align=left;spacingLeft=6;overflow=hidden;whiteSpace=wrap;html=1;" parent="SRAI_qYIzzOoZet5pKVk-115" vertex="1">
          <mxGeometry x="30" width="150" height="30" as="geometry">
            <mxRectangle width="150" height="30" as="alternateBounds" />
          </mxGeometry>
        </mxCell>
        <mxCell id="SRAI_qYIzzOoZet5pKVk-241" value="varchar" style="shape=partialRectangle;fillColor=none;align=left;verticalAlign=middle;strokeColor=none;spacingLeft=34;rotatable=0;points=[[0,0.5],[1,0.5]];portConstraint=eastwest;dropTarget=0;" parent="SRAI_qYIzzOoZet5pKVk-251" vertex="1">
          <mxGeometry x="90" y="30" width="90" height="30" as="geometry" />
        </mxCell>
        <mxCell id="SRAI_qYIzzOoZet5pKVk-242" value="" style="shape=partialRectangle;top=0;left=0;bottom=0;fillColor=none;stokeWidth=1;dashed=1;align=left;verticalAlign=middle;spacingLeft=4;spacingRight=4;overflow=hidden;rotatable=0;points=[];portConstraint=eastwest;part=1;" parent="SRAI_qYIzzOoZet5pKVk-241" vertex="1" connectable="0">
          <mxGeometry width="30" height="30" as="geometry" />
        </mxCell>
        <mxCell id="SRAI_qYIzzOoZet5pKVk-243" value="varchar" style="shape=partialRectangle;fillColor=none;align=left;verticalAlign=middle;strokeColor=none;spacingLeft=34;rotatable=0;points=[[0,0.5],[1,0.5]];portConstraint=eastwest;dropTarget=0;" parent="SRAI_qYIzzOoZet5pKVk-251" vertex="1">
          <mxGeometry x="90" y="60" width="90" height="30" as="geometry" />
        </mxCell>
        <mxCell id="SRAI_qYIzzOoZet5pKVk-244" value="" style="shape=partialRectangle;top=0;left=0;bottom=0;fillColor=none;stokeWidth=1;dashed=1;align=left;verticalAlign=middle;spacingLeft=4;spacingRight=4;overflow=hidden;rotatable=0;points=[];portConstraint=eastwest;part=1;" parent="SRAI_qYIzzOoZet5pKVk-243" vertex="1" connectable="0">
          <mxGeometry width="30" height="30" as="geometry" />
        </mxCell>
        <mxCell id="SRAI_qYIzzOoZet5pKVk-252" value="" style="group" parent="1" vertex="1" connectable="0">
          <mxGeometry x="940" y="60" width="180" height="120" as="geometry" />
        </mxCell>
        <mxCell id="SRAI_qYIzzOoZet5pKVk-245" value="varchar" style="shape=partialRectangle;fillColor=none;align=left;verticalAlign=middle;strokeColor=none;spacingLeft=34;rotatable=0;points=[[0,0.5],[1,0.5]];portConstraint=eastwest;dropTarget=0;" parent="SRAI_qYIzzOoZet5pKVk-252" vertex="1">
          <mxGeometry x="90" y="30" width="90" height="30" as="geometry" />
        </mxCell>
        <mxCell id="SRAI_qYIzzOoZet5pKVk-246" value="" style="shape=partialRectangle;top=0;left=0;bottom=0;fillColor=none;stokeWidth=1;dashed=1;align=left;verticalAlign=middle;spacingLeft=4;spacingRight=4;overflow=hidden;rotatable=0;points=[];portConstraint=eastwest;part=1;" parent="SRAI_qYIzzOoZet5pKVk-245" vertex="1" connectable="0">
          <mxGeometry width="30" height="30" as="geometry" />
        </mxCell>
        <mxCell id="SRAI_qYIzzOoZet5pKVk-249" value="int" style="shape=partialRectangle;fillColor=none;align=left;verticalAlign=middle;strokeColor=none;spacingLeft=34;rotatable=0;points=[[0,0.5],[1,0.5]];portConstraint=eastwest;dropTarget=0;" parent="SRAI_qYIzzOoZet5pKVk-252" vertex="1">
          <mxGeometry x="90" y="90" width="90" height="30" as="geometry" />
        </mxCell>
        <mxCell id="SRAI_qYIzzOoZet5pKVk-250" value="" style="shape=partialRectangle;top=0;left=0;bottom=0;fillColor=none;stokeWidth=1;dashed=1;align=left;verticalAlign=middle;spacingLeft=4;spacingRight=4;overflow=hidden;rotatable=0;points=[];portConstraint=eastwest;part=1;" parent="SRAI_qYIzzOoZet5pKVk-249" vertex="1" connectable="0">
          <mxGeometry width="30" height="30" as="geometry" />
        </mxCell>
        <mxCell id="SRAI_qYIzzOoZet5pKVk-253" value="" style="group" parent="SRAI_qYIzzOoZet5pKVk-252" vertex="1" connectable="0">
          <mxGeometry width="180" height="120" as="geometry" />
        </mxCell>
        <mxCell id="SRAI_qYIzzOoZet5pKVk-98" value="PhongHoc" style="shape=table;startSize=30;container=1;collapsible=1;childLayout=tableLayout;fixedRows=1;rowLines=0;fontStyle=1;align=center;resizeLast=1;html=1;" parent="SRAI_qYIzzOoZet5pKVk-253" vertex="1">
          <mxGeometry width="180" height="120" as="geometry" />
        </mxCell>
        <mxCell id="SRAI_qYIzzOoZet5pKVk-99" value="" style="shape=tableRow;horizontal=0;startSize=0;swimlaneHead=0;swimlaneBody=0;fillColor=none;collapsible=0;dropTarget=0;points=[[0,0.5],[1,0.5]];portConstraint=eastwest;top=0;left=0;right=0;bottom=1;" parent="SRAI_qYIzzOoZet5pKVk-98" vertex="1">
          <mxGeometry y="30" width="180" height="30" as="geometry" />
        </mxCell>
        <mxCell id="SRAI_qYIzzOoZet5pKVk-100" value="PK" style="shape=partialRectangle;connectable=0;fillColor=none;top=0;left=0;bottom=0;right=0;fontStyle=1;overflow=hidden;whiteSpace=wrap;html=1;" parent="SRAI_qYIzzOoZet5pKVk-99" vertex="1">
          <mxGeometry width="30" height="30" as="geometry">
            <mxRectangle width="30" height="30" as="alternateBounds" />
          </mxGeometry>
        </mxCell>
        <mxCell id="SRAI_qYIzzOoZet5pKVk-101" value="id" style="shape=partialRectangle;connectable=0;fillColor=none;top=0;left=0;bottom=0;right=0;align=left;spacingLeft=6;fontStyle=5;overflow=hidden;whiteSpace=wrap;html=1;" parent="SRAI_qYIzzOoZet5pKVk-99" vertex="1">
          <mxGeometry x="30" width="150" height="30" as="geometry">
            <mxRectangle width="150" height="30" as="alternateBounds" />
          </mxGeometry>
        </mxCell>
        <mxCell id="SRAI_qYIzzOoZet5pKVk-102" value="" style="shape=tableRow;horizontal=0;startSize=0;swimlaneHead=0;swimlaneBody=0;fillColor=none;collapsible=0;dropTarget=0;points=[[0,0.5],[1,0.5]];portConstraint=eastwest;top=0;left=0;right=0;bottom=0;" parent="SRAI_qYIzzOoZet5pKVk-98" vertex="1">
          <mxGeometry y="60" width="180" height="30" as="geometry" />
        </mxCell>
        <mxCell id="SRAI_qYIzzOoZet5pKVk-103" value="" style="shape=partialRectangle;connectable=0;fillColor=none;top=0;left=0;bottom=0;right=0;editable=1;overflow=hidden;whiteSpace=wrap;html=1;" parent="SRAI_qYIzzOoZet5pKVk-102" vertex="1">
          <mxGeometry width="30" height="30" as="geometry">
            <mxRectangle width="30" height="30" as="alternateBounds" />
          </mxGeometry>
        </mxCell>
        <mxCell id="SRAI_qYIzzOoZet5pKVk-104" value="id_loai_phong" style="shape=partialRectangle;connectable=0;fillColor=none;top=0;left=0;bottom=0;right=0;align=left;spacingLeft=6;overflow=hidden;whiteSpace=wrap;html=1;" parent="SRAI_qYIzzOoZet5pKVk-102" vertex="1">
          <mxGeometry x="30" width="150" height="30" as="geometry">
            <mxRectangle width="150" height="30" as="alternateBounds" />
          </mxGeometry>
        </mxCell>
        <mxCell id="SRAI_qYIzzOoZet5pKVk-105" value="" style="shape=tableRow;horizontal=0;startSize=0;swimlaneHead=0;swimlaneBody=0;fillColor=none;collapsible=0;dropTarget=0;points=[[0,0.5],[1,0.5]];portConstraint=eastwest;top=0;left=0;right=0;bottom=0;" parent="SRAI_qYIzzOoZet5pKVk-98" vertex="1">
          <mxGeometry y="90" width="180" height="30" as="geometry" />
        </mxCell>
        <mxCell id="SRAI_qYIzzOoZet5pKVk-106" value="" style="shape=partialRectangle;connectable=0;fillColor=none;top=0;left=0;bottom=0;right=0;editable=1;overflow=hidden;whiteSpace=wrap;html=1;" parent="SRAI_qYIzzOoZet5pKVk-105" vertex="1">
          <mxGeometry width="30" height="30" as="geometry">
            <mxRectangle width="30" height="30" as="alternateBounds" />
          </mxGeometry>
        </mxCell>
        <mxCell id="SRAI_qYIzzOoZet5pKVk-107" value="so_cho" style="shape=partialRectangle;connectable=0;fillColor=none;top=0;left=0;bottom=0;right=0;align=left;spacingLeft=6;overflow=hidden;whiteSpace=wrap;html=1;" parent="SRAI_qYIzzOoZet5pKVk-105" vertex="1">
          <mxGeometry x="30" width="150" height="30" as="geometry">
            <mxRectangle width="150" height="30" as="alternateBounds" />
          </mxGeometry>
        </mxCell>
        <mxCell id="SRAI_qYIzzOoZet5pKVk-247" value="varchar" style="shape=partialRectangle;fillColor=none;align=left;verticalAlign=middle;strokeColor=none;spacingLeft=34;rotatable=0;points=[[0,0.5],[1,0.5]];portConstraint=eastwest;dropTarget=0;" parent="SRAI_qYIzzOoZet5pKVk-253" vertex="1">
          <mxGeometry x="90" y="60" width="90" height="30" as="geometry" />
        </mxCell>
        <mxCell id="SRAI_qYIzzOoZet5pKVk-248" value="" style="shape=partialRectangle;top=0;left=0;bottom=0;fillColor=none;stokeWidth=1;dashed=1;align=left;verticalAlign=middle;spacingLeft=4;spacingRight=4;overflow=hidden;rotatable=0;points=[];portConstraint=eastwest;part=1;" parent="SRAI_qYIzzOoZet5pKVk-247" vertex="1" connectable="0">
          <mxGeometry width="30" height="30" as="geometry" />
        </mxCell>
        <mxCell id="SRAI_qYIzzOoZet5pKVk-254" style="edgeStyle=orthogonalEdgeStyle;rounded=0;orthogonalLoop=1;jettySize=auto;html=1;entryX=1;entryY=0.5;entryDx=0;entryDy=0;exitX=0;exitY=0.5;exitDx=0;exitDy=0;" parent="1" source="SRAI_qYIzzOoZet5pKVk-102" target="SRAI_qYIzzOoZet5pKVk-241" edge="1">
          <mxGeometry relative="1" as="geometry">
            <mxPoint x="920" y="160" as="sourcePoint" />
          </mxGeometry>
        </mxCell>
        <mxCell id="SRAI_qYIzzOoZet5pKVk-255" style="edgeStyle=orthogonalEdgeStyle;rounded=0;orthogonalLoop=1;jettySize=auto;html=1;exitX=1;exitY=0.5;exitDx=0;exitDy=0;" parent="1" source="SRAI_qYIzzOoZet5pKVk-145" edge="1">
          <mxGeometry relative="1" as="geometry">
            <mxPoint x="250" y="105" as="targetPoint" />
          </mxGeometry>
        </mxCell>
        <mxCell id="SRAI_qYIzzOoZet5pKVk-256" style="edgeStyle=orthogonalEdgeStyle;rounded=0;orthogonalLoop=1;jettySize=auto;html=1;exitX=0;exitY=0.5;exitDx=0;exitDy=0;entryX=1;entryY=0.5;entryDx=0;entryDy=0;" parent="1" source="SRAI_qYIzzOoZet5pKVk-172" target="SRAI_qYIzzOoZet5pKVk-86" edge="1">
          <mxGeometry relative="1" as="geometry" />
        </mxCell>
        <mxCell id="SRAI_qYIzzOoZet5pKVk-272" style="edgeStyle=orthogonalEdgeStyle;rounded=0;orthogonalLoop=1;jettySize=auto;html=1;entryX=0;entryY=0.5;entryDx=0;entryDy=0;exitX=1;exitY=0.5;exitDx=0;exitDy=0;" parent="1" source="SRAI_qYIzzOoZet5pKVk-270" target="SRAI_qYIzzOoZet5pKVk-125" edge="1">
          <mxGeometry relative="1" as="geometry">
            <mxPoint x="250" y="270" as="sourcePoint" />
          </mxGeometry>
        </mxCell>
        <mxCell id="SRAI_qYIzzOoZet5pKVk-273" value="key: 0&lt;br&gt;value: [id_hoc_phan]" style="whiteSpace=wrap;html=1;" parent="1" vertex="1">
          <mxGeometry x="460" y="375" width="120" height="60" as="geometry" />
        </mxCell>
        <mxCell id="SRAI_qYIzzOoZet5pKVk-274" value="" style="edgeStyle=orthogonalEdgeStyle;rounded=0;orthogonalLoop=1;jettySize=auto;html=1;" parent="1" source="SRAI_qYIzzOoZet5pKVk-143" target="SRAI_qYIzzOoZet5pKVk-273" edge="1">
          <mxGeometry relative="1" as="geometry" />
        </mxCell>
        <mxCell id="SRAI_qYIzzOoZet5pKVk-276" style="edgeStyle=orthogonalEdgeStyle;rounded=0;orthogonalLoop=1;jettySize=auto;html=1;exitX=0;exitY=0.5;exitDx=0;exitDy=0;entryX=1;entryY=0.5;entryDx=0;entryDy=0;" parent="1" source="SRAI_qYIzzOoZet5pKVk-76" target="SRAI_qYIzzOoZet5pKVk-60" edge="1">
          <mxGeometry relative="1" as="geometry" />
        </mxCell>
        <mxCell id="SRAI_qYIzzOoZet5pKVk-283" value="&lt;span style=&quot;font-weight: 400;&quot;&gt;&amp;nbsp;key: 0&lt;br&gt;&lt;/span&gt;&lt;span style=&quot;font-weight: normal;&quot;&gt;value: [id_hoc_phan]&lt;/span&gt;" style="whiteSpace=wrap;html=1;startSize=30;fontStyle=1;" parent="1" vertex="1">
          <mxGeometry x="460" y="450" width="120" height="60" as="geometry" />
        </mxCell>
        <mxCell id="SRAI_qYIzzOoZet5pKVk-284" value="" style="edgeStyle=orthogonalEdgeStyle;rounded=0;orthogonalLoop=1;jettySize=auto;html=1;exitX=0;exitY=0.5;exitDx=0;exitDy=0;" parent="1" source="SRAI_qYIzzOoZet5pKVk-69" target="SRAI_qYIzzOoZet5pKVk-283" edge="1">
          <mxGeometry relative="1" as="geometry" />
        </mxCell>
        <mxCell id="SRAI_qYIzzOoZet5pKVk-288" value="&lt;span style=&quot;font-weight: normal;&quot;&gt;key: ten_tai_lieu&lt;br&gt;value: link&lt;br&gt;&lt;/span&gt;" style="whiteSpace=wrap;html=1;startSize=30;fontStyle=1;" parent="1" vertex="1">
          <mxGeometry x="460" y="525" width="120" height="60" as="geometry" />
        </mxCell>
        <mxCell id="SRAI_qYIzzOoZet5pKVk-289" value="" style="edgeStyle=orthogonalEdgeStyle;rounded=0;orthogonalLoop=1;jettySize=auto;html=1;exitX=0;exitY=0.5;exitDx=0;exitDy=0;" parent="1" source="SRAI_qYIzzOoZet5pKVk-211" target="SRAI_qYIzzOoZet5pKVk-288" edge="1">
          <mxGeometry relative="1" as="geometry" />
        </mxCell>
        <mxCell id="SRAI_qYIzzOoZet5pKVk-292" value="key: 0&lt;br&gt;value: [quyen]" style="whiteSpace=wrap;html=1;" parent="1" vertex="1">
          <mxGeometry x="480" y="250" width="120" height="60" as="geometry" />
        </mxCell>
        <mxCell id="SRAI_qYIzzOoZet5pKVk-295" style="edgeStyle=orthogonalEdgeStyle;rounded=0;orthogonalLoop=1;jettySize=auto;html=1;exitX=1;exitY=0.5;exitDx=0;exitDy=0;entryX=0;entryY=0.5;entryDx=0;entryDy=0;" parent="1" source="SRAI_qYIzzOoZet5pKVk-95" target="SRAI_qYIzzOoZet5pKVk-292" edge="1">
          <mxGeometry relative="1" as="geometry">
            <mxPoint x="480" y="290" as="targetPoint" />
            <Array as="points">
              <mxPoint x="460" y="195" />
              <mxPoint x="460" y="280" />
            </Array>
          </mxGeometry>
        </mxCell>
        <mxCell id="SRAI_qYIzzOoZet5pKVk-296" value="key: 0&lt;br&gt;value: [id_sinh_vien]" style="whiteSpace=wrap;html=1;" parent="1" vertex="1">
          <mxGeometry x="980" y="260" width="120" height="60" as="geometry" />
        </mxCell>
        <mxCell id="SRAI_qYIzzOoZet5pKVk-297" style="edgeStyle=orthogonalEdgeStyle;rounded=0;orthogonalLoop=1;jettySize=auto;html=1;exitX=1;exitY=0.5;exitDx=0;exitDy=0;entryX=1;entryY=0.5;entryDx=0;entryDy=0;" parent="1" source="SRAI_qYIzzOoZet5pKVk-232" target="SRAI_qYIzzOoZet5pKVk-296" edge="1">
          <mxGeometry relative="1" as="geometry">
            <Array as="points">
              <mxPoint x="1130" y="525" />
              <mxPoint x="1130" y="290" />
            </Array>
          </mxGeometry>
        </mxCell>
        <mxCell id="SRAI_qYIzzOoZet5pKVk-298" value="key: id_hoc_phan&lt;br&gt;value: json{key: %diem, value: diem}" style="whiteSpace=wrap;html=1;" parent="1" vertex="1">
          <mxGeometry x="40" y="383.5" width="210" height="60" as="geometry" />
        </mxCell>
        <mxCell id="SRAI_qYIzzOoZet5pKVk-299" value="key: 0&lt;br&gt;value: [id_mon_hoc]" style="whiteSpace=wrap;html=1;" parent="1" vertex="1">
          <mxGeometry x="40" y="465" width="120" height="60" as="geometry" />
        </mxCell>
        <mxCell id="SRAI_qYIzzOoZet5pKVk-300" style="edgeStyle=orthogonalEdgeStyle;rounded=0;orthogonalLoop=1;jettySize=auto;html=1;exitX=0;exitY=0.5;exitDx=0;exitDy=0;entryX=0;entryY=0.5;entryDx=0;entryDy=0;" parent="1" source="SRAI_qYIzzOoZet5pKVk-153" target="SRAI_qYIzzOoZet5pKVk-298" edge="1">
          <mxGeometry relative="1" as="geometry">
            <Array as="points">
              <mxPoint x="20" y="255" />
              <mxPoint x="20" y="414" />
            </Array>
          </mxGeometry>
        </mxCell>
        <mxCell id="SRAI_qYIzzOoZet5pKVk-301" style="edgeStyle=orthogonalEdgeStyle;rounded=0;orthogonalLoop=1;jettySize=auto;html=1;exitX=0;exitY=0.5;exitDx=0;exitDy=0;entryX=0;entryY=0.5;entryDx=0;entryDy=0;" parent="1" source="SRAI_qYIzzOoZet5pKVk-156" target="SRAI_qYIzzOoZet5pKVk-299" edge="1">
          <mxGeometry relative="1" as="geometry">
            <Array as="points">
              <mxPoint x="10" y="285" />
              <mxPoint x="10" y="490" />
            </Array>
          </mxGeometry>
        </mxCell>
        <mxCell id="jOV7yjbubgc_aujzN_1O-6" value="" style="group" vertex="1" connectable="0" parent="1">
          <mxGeometry x="650" y="360" width="200" height="210" as="geometry" />
        </mxCell>
        <mxCell id="SRAI_qYIzzOoZet5pKVk-239" value="" style="group" parent="jOV7yjbubgc_aujzN_1O-6" vertex="1" connectable="0">
          <mxGeometry width="200" height="180" as="geometry" />
        </mxCell>
        <mxCell id="SRAI_qYIzzOoZet5pKVk-59" value="HocPhan" style="shape=table;startSize=30;container=1;collapsible=1;childLayout=tableLayout;fixedRows=1;rowLines=0;fontStyle=1;align=center;resizeLast=1;html=1;" parent="SRAI_qYIzzOoZet5pKVk-239" vertex="1">
          <mxGeometry width="200" height="210" as="geometry" />
        </mxCell>
        <mxCell id="SRAI_qYIzzOoZet5pKVk-60" value="" style="shape=tableRow;horizontal=0;startSize=0;swimlaneHead=0;swimlaneBody=0;fillColor=none;collapsible=0;dropTarget=0;points=[[0,0.5],[1,0.5]];portConstraint=eastwest;top=0;left=0;right=0;bottom=1;" parent="SRAI_qYIzzOoZet5pKVk-59" vertex="1">
          <mxGeometry y="30" width="200" height="30" as="geometry" />
        </mxCell>
        <mxCell id="SRAI_qYIzzOoZet5pKVk-61" value="PK" style="shape=partialRectangle;connectable=0;fillColor=none;top=0;left=0;bottom=0;right=0;fontStyle=1;overflow=hidden;whiteSpace=wrap;html=1;" parent="SRAI_qYIzzOoZet5pKVk-60" vertex="1">
          <mxGeometry width="30" height="30" as="geometry">
            <mxRectangle width="30" height="30" as="alternateBounds" />
          </mxGeometry>
        </mxCell>
        <mxCell id="SRAI_qYIzzOoZet5pKVk-62" value="id" style="shape=partialRectangle;connectable=0;fillColor=none;top=0;left=0;bottom=0;right=0;align=left;spacingLeft=6;fontStyle=5;overflow=hidden;whiteSpace=wrap;html=1;" parent="SRAI_qYIzzOoZet5pKVk-60" vertex="1">
          <mxGeometry x="30" width="170" height="30" as="geometry">
            <mxRectangle width="170" height="30" as="alternateBounds" />
          </mxGeometry>
        </mxCell>
        <mxCell id="SRAI_qYIzzOoZet5pKVk-63" value="" style="shape=tableRow;horizontal=0;startSize=0;swimlaneHead=0;swimlaneBody=0;fillColor=none;collapsible=0;dropTarget=0;points=[[0,0.5],[1,0.5]];portConstraint=eastwest;top=0;left=0;right=0;bottom=0;" parent="SRAI_qYIzzOoZet5pKVk-59" vertex="1">
          <mxGeometry y="60" width="200" height="30" as="geometry" />
        </mxCell>
        <mxCell id="SRAI_qYIzzOoZet5pKVk-64" value="" style="shape=partialRectangle;connectable=0;fillColor=none;top=0;left=0;bottom=0;right=0;editable=1;overflow=hidden;whiteSpace=wrap;html=1;" parent="SRAI_qYIzzOoZet5pKVk-63" vertex="1">
          <mxGeometry width="30" height="30" as="geometry">
            <mxRectangle width="30" height="30" as="alternateBounds" />
          </mxGeometry>
        </mxCell>
        <mxCell id="SRAI_qYIzzOoZet5pKVk-65" value="ten" style="shape=partialRectangle;connectable=0;fillColor=none;top=0;left=0;bottom=0;right=0;align=left;spacingLeft=6;overflow=hidden;whiteSpace=wrap;html=1;" parent="SRAI_qYIzzOoZet5pKVk-63" vertex="1">
          <mxGeometry x="30" width="170" height="30" as="geometry">
            <mxRectangle width="170" height="30" as="alternateBounds" />
          </mxGeometry>
        </mxCell>
        <mxCell id="jOV7yjbubgc_aujzN_1O-1" style="shape=tableRow;horizontal=0;startSize=0;swimlaneHead=0;swimlaneBody=0;fillColor=none;collapsible=0;dropTarget=0;points=[[0,0.5],[1,0.5]];portConstraint=eastwest;top=0;left=0;right=0;bottom=0;" vertex="1" parent="SRAI_qYIzzOoZet5pKVk-59">
          <mxGeometry y="90" width="200" height="30" as="geometry" />
        </mxCell>
        <mxCell id="jOV7yjbubgc_aujzN_1O-2" style="shape=partialRectangle;connectable=0;fillColor=none;top=0;left=0;bottom=0;right=0;editable=1;overflow=hidden;whiteSpace=wrap;html=1;" vertex="1" parent="jOV7yjbubgc_aujzN_1O-1">
          <mxGeometry width="30" height="30" as="geometry">
            <mxRectangle width="30" height="30" as="alternateBounds" />
          </mxGeometry>
        </mxCell>
        <mxCell id="jOV7yjbubgc_aujzN_1O-3" value="so_tin" style="shape=partialRectangle;connectable=0;fillColor=none;top=0;left=0;bottom=0;right=0;align=left;spacingLeft=6;overflow=hidden;whiteSpace=wrap;html=1;" vertex="1" parent="jOV7yjbubgc_aujzN_1O-1">
          <mxGeometry x="30" width="170" height="30" as="geometry">
            <mxRectangle width="170" height="30" as="alternateBounds" />
          </mxGeometry>
        </mxCell>
        <mxCell id="SRAI_qYIzzOoZet5pKVk-66" value="" style="shape=tableRow;horizontal=0;startSize=0;swimlaneHead=0;swimlaneBody=0;fillColor=none;collapsible=0;dropTarget=0;points=[[0,0.5],[1,0.5]];portConstraint=eastwest;top=0;left=0;right=0;bottom=0;" parent="SRAI_qYIzzOoZet5pKVk-59" vertex="1">
          <mxGeometry y="120" width="200" height="30" as="geometry" />
        </mxCell>
        <mxCell id="SRAI_qYIzzOoZet5pKVk-67" value="" style="shape=partialRectangle;connectable=0;fillColor=none;top=0;left=0;bottom=0;right=0;editable=1;overflow=hidden;whiteSpace=wrap;html=1;" parent="SRAI_qYIzzOoZet5pKVk-66" vertex="1">
          <mxGeometry width="30" height="30" as="geometry">
            <mxRectangle width="30" height="30" as="alternateBounds" />
          </mxGeometry>
        </mxCell>
        <mxCell id="SRAI_qYIzzOoZet5pKVk-68" value="mo_ta" style="shape=partialRectangle;connectable=0;fillColor=none;top=0;left=0;bottom=0;right=0;align=left;spacingLeft=6;overflow=hidden;whiteSpace=wrap;html=1;" parent="SRAI_qYIzzOoZet5pKVk-66" vertex="1">
          <mxGeometry x="30" width="170" height="30" as="geometry">
            <mxRectangle width="170" height="30" as="alternateBounds" />
          </mxGeometry>
        </mxCell>
        <mxCell id="SRAI_qYIzzOoZet5pKVk-69" value="" style="shape=tableRow;horizontal=0;startSize=0;swimlaneHead=0;swimlaneBody=0;fillColor=none;collapsible=0;dropTarget=0;points=[[0,0.5],[1,0.5]];portConstraint=eastwest;top=0;left=0;right=0;bottom=0;" parent="SRAI_qYIzzOoZet5pKVk-59" vertex="1">
          <mxGeometry y="150" width="200" height="30" as="geometry" />
        </mxCell>
        <mxCell id="SRAI_qYIzzOoZet5pKVk-70" value="" style="shape=partialRectangle;connectable=0;fillColor=none;top=0;left=0;bottom=0;right=0;editable=1;overflow=hidden;whiteSpace=wrap;html=1;" parent="SRAI_qYIzzOoZet5pKVk-69" vertex="1">
          <mxGeometry width="30" height="30" as="geometry">
            <mxRectangle width="30" height="30" as="alternateBounds" />
          </mxGeometry>
        </mxCell>
        <mxCell id="SRAI_qYIzzOoZet5pKVk-71" value="hp_tien_quyet" style="shape=partialRectangle;connectable=0;fillColor=none;top=0;left=0;bottom=0;right=0;align=left;spacingLeft=6;overflow=hidden;whiteSpace=wrap;html=1;" parent="SRAI_qYIzzOoZet5pKVk-69" vertex="1">
          <mxGeometry x="30" width="170" height="30" as="geometry">
            <mxRectangle width="170" height="30" as="alternateBounds" />
          </mxGeometry>
        </mxCell>
        <mxCell id="SRAI_qYIzzOoZet5pKVk-211" value="" style="shape=tableRow;horizontal=0;startSize=0;swimlaneHead=0;swimlaneBody=0;fillColor=none;collapsible=0;dropTarget=0;points=[[0,0.5],[1,0.5]];portConstraint=eastwest;top=0;left=0;right=0;bottom=0;" parent="SRAI_qYIzzOoZet5pKVk-59" vertex="1">
          <mxGeometry y="180" width="200" height="30" as="geometry" />
        </mxCell>
        <mxCell id="SRAI_qYIzzOoZet5pKVk-212" value="" style="shape=partialRectangle;connectable=0;fillColor=none;top=0;left=0;bottom=0;right=0;editable=1;overflow=hidden;whiteSpace=wrap;html=1;" parent="SRAI_qYIzzOoZet5pKVk-211" vertex="1">
          <mxGeometry width="30" height="30" as="geometry">
            <mxRectangle width="30" height="30" as="alternateBounds" />
          </mxGeometry>
        </mxCell>
        <mxCell id="SRAI_qYIzzOoZet5pKVk-213" value="tai_lieu" style="shape=partialRectangle;connectable=0;fillColor=none;top=0;left=0;bottom=0;right=0;align=left;spacingLeft=6;overflow=hidden;whiteSpace=wrap;html=1;" parent="SRAI_qYIzzOoZet5pKVk-211" vertex="1">
          <mxGeometry x="30" width="170" height="30" as="geometry">
            <mxRectangle width="170" height="30" as="alternateBounds" />
          </mxGeometry>
        </mxCell>
        <mxCell id="SRAI_qYIzzOoZet5pKVk-203" value="varchar" style="shape=partialRectangle;fillColor=none;align=left;verticalAlign=middle;strokeColor=none;spacingLeft=34;rotatable=0;points=[[0,0.5],[1,0.5]];portConstraint=eastwest;dropTarget=0;" parent="SRAI_qYIzzOoZet5pKVk-239" vertex="1">
          <mxGeometry x="90" y="30" width="90" height="30" as="geometry" />
        </mxCell>
        <mxCell id="SRAI_qYIzzOoZet5pKVk-204" value="" style="shape=partialRectangle;top=0;left=0;bottom=0;fillColor=none;stokeWidth=1;dashed=1;align=left;verticalAlign=middle;spacingLeft=4;spacingRight=4;overflow=hidden;rotatable=0;points=[];portConstraint=eastwest;part=1;" parent="SRAI_qYIzzOoZet5pKVk-203" vertex="1" connectable="0">
          <mxGeometry width="30" height="30" as="geometry" />
        </mxCell>
        <mxCell id="SRAI_qYIzzOoZet5pKVk-205" value="varchar" style="shape=partialRectangle;fillColor=none;align=left;verticalAlign=middle;strokeColor=none;spacingLeft=34;rotatable=0;points=[[0,0.5],[1,0.5]];portConstraint=eastwest;dropTarget=0;" parent="SRAI_qYIzzOoZet5pKVk-239" vertex="1">
          <mxGeometry x="90" y="60" width="90" height="30" as="geometry" />
        </mxCell>
        <mxCell id="SRAI_qYIzzOoZet5pKVk-206" value="" style="shape=partialRectangle;top=0;left=0;bottom=0;fillColor=none;stokeWidth=1;dashed=1;align=left;verticalAlign=middle;spacingLeft=4;spacingRight=4;overflow=hidden;rotatable=0;points=[];portConstraint=eastwest;part=1;" parent="SRAI_qYIzzOoZet5pKVk-205" vertex="1" connectable="0">
          <mxGeometry width="30" height="30" as="geometry" />
        </mxCell>
        <mxCell id="SRAI_qYIzzOoZet5pKVk-207" value="varchar" style="shape=partialRectangle;fillColor=none;align=left;verticalAlign=middle;strokeColor=none;spacingLeft=34;rotatable=0;points=[[0,0.5],[1,0.5]];portConstraint=eastwest;dropTarget=0;" parent="SRAI_qYIzzOoZet5pKVk-239" vertex="1">
          <mxGeometry x="90" y="120" width="90" height="30" as="geometry" />
        </mxCell>
        <mxCell id="SRAI_qYIzzOoZet5pKVk-208" value="" style="shape=partialRectangle;top=0;left=0;bottom=0;fillColor=none;stokeWidth=1;dashed=1;align=left;verticalAlign=middle;spacingLeft=4;spacingRight=4;overflow=hidden;rotatable=0;points=[];portConstraint=eastwest;part=1;" parent="SRAI_qYIzzOoZet5pKVk-207" vertex="1" connectable="0">
          <mxGeometry width="30" height="30" as="geometry" />
        </mxCell>
        <mxCell id="SRAI_qYIzzOoZet5pKVk-209" value="json or list" style="shape=partialRectangle;fillColor=none;align=left;verticalAlign=middle;strokeColor=none;spacingLeft=34;rotatable=0;points=[[0,0.5],[1,0.5]];portConstraint=eastwest;dropTarget=0;" parent="SRAI_qYIzzOoZet5pKVk-239" vertex="1">
          <mxGeometry x="90" y="150" width="90" height="30" as="geometry" />
        </mxCell>
        <mxCell id="SRAI_qYIzzOoZet5pKVk-210" value="" style="shape=partialRectangle;top=0;left=0;bottom=0;fillColor=none;stokeWidth=1;dashed=1;align=left;verticalAlign=middle;spacingLeft=4;spacingRight=4;overflow=hidden;rotatable=0;points=[];portConstraint=eastwest;part=1;" parent="SRAI_qYIzzOoZet5pKVk-209" vertex="1" connectable="0">
          <mxGeometry width="30" height="30" as="geometry" />
        </mxCell>
        <mxCell id="jOV7yjbubgc_aujzN_1O-4" value="int" style="shape=partialRectangle;fillColor=none;align=left;verticalAlign=middle;strokeColor=none;spacingLeft=34;rotatable=0;points=[[0,0.5],[1,0.5]];portConstraint=eastwest;dropTarget=0;" vertex="1" parent="SRAI_qYIzzOoZet5pKVk-239">
          <mxGeometry x="90" y="90" width="90" height="30" as="geometry" />
        </mxCell>
        <mxCell id="jOV7yjbubgc_aujzN_1O-5" value="" style="shape=partialRectangle;top=0;left=0;bottom=0;fillColor=none;stokeWidth=1;dashed=1;align=left;verticalAlign=middle;spacingLeft=4;spacingRight=4;overflow=hidden;rotatable=0;points=[];portConstraint=eastwest;part=1;" vertex="1" connectable="0" parent="jOV7yjbubgc_aujzN_1O-4">
          <mxGeometry width="30" height="30" as="geometry" />
        </mxCell>
        <mxCell id="SRAI_qYIzzOoZet5pKVk-214" value="json" style="shape=partialRectangle;fillColor=none;align=left;verticalAlign=middle;strokeColor=none;spacingLeft=34;rotatable=0;points=[[0,0.5],[1,0.5]];portConstraint=eastwest;dropTarget=0;" parent="jOV7yjbubgc_aujzN_1O-6" vertex="1">
          <mxGeometry x="90" y="180" width="90" height="30" as="geometry" />
        </mxCell>
        <mxCell id="SRAI_qYIzzOoZet5pKVk-215" value="" style="shape=partialRectangle;top=0;left=0;bottom=0;fillColor=none;stokeWidth=1;dashed=1;align=left;verticalAlign=middle;spacingLeft=4;spacingRight=4;overflow=hidden;rotatable=0;points=[];portConstraint=eastwest;part=1;" parent="SRAI_qYIzzOoZet5pKVk-214" vertex="1" connectable="0">
          <mxGeometry width="30" height="30" as="geometry" />
        </mxCell>
      </root>
    </mxGraphModel>
  </diagram>
  <diagram id="Sw-56Pz5FIu5AQ5g2wV4" name="GUI">
    <mxGraphModel dx="1467" dy="780" grid="1" gridSize="10" guides="1" tooltips="1" connect="1" arrows="1" fold="1" page="1" pageScale="1" pageWidth="1169" pageHeight="827" math="0" shadow="0">
      <root>
        <mxCell id="0" />
        <mxCell id="1" parent="0" />
        <mxCell id="lVSrKP5NXGBhxeATj70Y-27" value="" style="group" vertex="1" connectable="0" parent="1">
          <mxGeometry x="1080" width="901" height="600" as="geometry" />
        </mxCell>
        <mxCell id="lVSrKP5NXGBhxeATj70Y-23" value="account.html" style="text;html=1;strokeColor=none;fillColor=none;align=center;verticalAlign=middle;whiteSpace=wrap;rounded=0;" vertex="1" parent="lVSrKP5NXGBhxeATj70Y-27">
          <mxGeometry width="80" height="30" as="geometry" />
        </mxCell>
        <mxCell id="lVSrKP5NXGBhxeATj70Y-26" value="" style="group" vertex="1" connectable="0" parent="lVSrKP5NXGBhxeATj70Y-27">
          <mxGeometry x="1" y="30" width="900" height="570" as="geometry" />
        </mxCell>
        <mxCell id="lVSrKP5NXGBhxeATj70Y-22" value="" style="rounded=0;whiteSpace=wrap;html=1;" vertex="1" parent="lVSrKP5NXGBhxeATj70Y-26">
          <mxGeometry width="900" height="570" as="geometry" />
        </mxCell>
        <mxCell id="lVSrKP5NXGBhxeATj70Y-25" value="" style="rounded=1;whiteSpace=wrap;html=1;" vertex="1" parent="lVSrKP5NXGBhxeATj70Y-26">
          <mxGeometry x="7.7586206896551175" y="55.60975609756096" width="884.4827586206898" height="458.78048780487796" as="geometry" />
        </mxCell>
        <mxCell id="lVSrKP5NXGBhxeATj70Y-24" value="&lt;font style=&quot;font-size: 24px;&quot;&gt;Login / Register&lt;/font&gt;" style="rounded=1;whiteSpace=wrap;html=1;" vertex="1" parent="lVSrKP5NXGBhxeATj70Y-26">
          <mxGeometry x="304.5" y="70" width="291" height="430" as="geometry" />
        </mxCell>
        <mxCell id="lVSrKP5NXGBhxeATj70Y-28" value="" style="group" vertex="1" connectable="0" parent="1">
          <mxGeometry width="900" height="600" as="geometry" />
        </mxCell>
        <mxCell id="lVSrKP5NXGBhxeATj70Y-18" value="" style="group" vertex="1" connectable="0" parent="lVSrKP5NXGBhxeATj70Y-28">
          <mxGeometry y="30" width="900" height="570" as="geometry" />
        </mxCell>
        <mxCell id="lVSrKP5NXGBhxeATj70Y-1" value="" style="rounded=0;whiteSpace=wrap;html=1;" vertex="1" parent="lVSrKP5NXGBhxeATj70Y-18">
          <mxGeometry width="900" height="570" as="geometry" />
        </mxCell>
        <mxCell id="lVSrKP5NXGBhxeATj70Y-3" value="&lt;font style=&quot;font-size: 36px;&quot;&gt;HUS&lt;/font&gt;" style="rounded=1;whiteSpace=wrap;html=1;" vertex="1" parent="lVSrKP5NXGBhxeATj70Y-18">
          <mxGeometry x="7.758620689655173" y="6.95121951219512" width="93.10344827586206" height="41.707317073170714" as="geometry" />
        </mxCell>
        <mxCell id="lVSrKP5NXGBhxeATj70Y-4" value="&lt;font style=&quot;font-size: 24px;&quot;&gt;Account&lt;/font&gt;" style="rounded=1;whiteSpace=wrap;html=1;" vertex="1" parent="lVSrKP5NXGBhxeATj70Y-18">
          <mxGeometry x="799.1379310344827" y="6.95121951219512" width="93.10344827586206" height="41.707317073170714" as="geometry" />
        </mxCell>
        <mxCell id="lVSrKP5NXGBhxeATj70Y-5" value="&lt;font style=&quot;font-size: 24px;&quot;&gt;About&lt;/font&gt;" style="rounded=1;whiteSpace=wrap;html=1;" vertex="1" parent="lVSrKP5NXGBhxeATj70Y-18">
          <mxGeometry x="698.2758620689655" y="6.95121951219512" width="93.10344827586206" height="41.707317073170714" as="geometry" />
        </mxCell>
        <mxCell id="lVSrKP5NXGBhxeATj70Y-6" value="" style="rounded=1;whiteSpace=wrap;html=1;" vertex="1" parent="lVSrKP5NXGBhxeATj70Y-18">
          <mxGeometry x="7.758620689655173" y="55.60975609756096" width="884.4827586206898" height="458.78048780487796" as="geometry" />
        </mxCell>
        <mxCell id="lVSrKP5NXGBhxeATj70Y-7" value="" style="rounded=1;whiteSpace=wrap;html=1;" vertex="1" parent="lVSrKP5NXGBhxeATj70Y-18">
          <mxGeometry x="7.758620689655173" y="521.3414634146341" width="884.4827586206898" height="41.707317073170714" as="geometry" />
        </mxCell>
        <mxCell id="lVSrKP5NXGBhxeATj70Y-12" value="&lt;font style=&quot;font-size: 48px;&quot;&gt;Main page&lt;/font&gt;" style="text;html=1;strokeColor=none;fillColor=none;align=center;verticalAlign=middle;whiteSpace=wrap;rounded=0;" vertex="1" parent="lVSrKP5NXGBhxeATj70Y-18">
          <mxGeometry x="314.2241379310345" y="243.2926829268292" width="279.31034482758616" height="58.39024390243901" as="geometry" />
        </mxCell>
        <mxCell id="lVSrKP5NXGBhxeATj70Y-13" value="Thank for: Pham Ngoc Hai, Luong Duc Anh, Tran Minh Duc, Nguyen Van Thang" style="rounded=1;whiteSpace=wrap;html=1;" vertex="1" parent="lVSrKP5NXGBhxeATj70Y-18">
          <mxGeometry x="325.86206896551727" y="526.5548780487803" width="558.6206896551723" height="31.280487804878042" as="geometry" />
        </mxCell>
        <mxCell id="lVSrKP5NXGBhxeATj70Y-14" value="All right&amp;nbsp;reserved&amp;nbsp;" style="rounded=1;whiteSpace=wrap;html=1;" vertex="1" parent="lVSrKP5NXGBhxeATj70Y-18">
          <mxGeometry x="170.68965517241378" y="526.5548780487803" width="139.65517241379308" height="31.280487804878042" as="geometry" />
        </mxCell>
        <mxCell id="lVSrKP5NXGBhxeATj70Y-17" value="" style="rounded=1;whiteSpace=wrap;html=1;" vertex="1" parent="lVSrKP5NXGBhxeATj70Y-18">
          <mxGeometry x="15.517241379310345" y="526.5548780487803" width="147.41379310344828" height="31.280487804878042" as="geometry" />
        </mxCell>
        <mxCell id="lVSrKP5NXGBhxeATj70Y-15" value="" style="group" vertex="1" connectable="0" parent="lVSrKP5NXGBhxeATj70Y-18">
          <mxGeometry x="31.03448275862069" y="535.2439024390243" width="193.9655172413793" height="17.3780487804878" as="geometry" />
        </mxCell>
        <mxCell id="lVSrKP5NXGBhxeATj70Y-8" value="Fb" style="ellipse;whiteSpace=wrap;html=1;aspect=fixed;" vertex="1" parent="lVSrKP5NXGBhxeATj70Y-15">
          <mxGeometry width="14.299343226311336" height="14.299343226311336" as="geometry" />
        </mxCell>
        <mxCell id="lVSrKP5NXGBhxeATj70Y-9" value="Tiktok" style="ellipse;whiteSpace=wrap;html=1;aspect=fixed;" vertex="1" parent="lVSrKP5NXGBhxeATj70Y-15">
          <mxGeometry x="42.87658802177858" width="14.299343226311336" height="14.299343226311336" as="geometry" />
        </mxCell>
        <mxCell id="lVSrKP5NXGBhxeATj70Y-11" value="X" style="ellipse;whiteSpace=wrap;html=1;aspect=fixed;" vertex="1" parent="lVSrKP5NXGBhxeATj70Y-15">
          <mxGeometry x="85.75317604355716" width="14.299343226311336" height="14.299343226311336" as="geometry" />
        </mxCell>
        <mxCell id="lVSrKP5NXGBhxeATj70Y-21" value="index.html" style="text;html=1;strokeColor=none;fillColor=none;align=center;verticalAlign=middle;whiteSpace=wrap;rounded=0;" vertex="1" parent="lVSrKP5NXGBhxeATj70Y-28">
          <mxGeometry width="60" height="30" as="geometry" />
        </mxCell>
      </root>
    </mxGraphModel>
  </diagram>
</mxfile>
